<?xml version="1.0" encoding="UTF-8" standalone="no"?>
<svg width="881px" height="565px" viewBox="0 0 881 565" version="1.1" xmlns="http://www.w3.org/2000/svg" xmlns:xlink="http://www.w3.org/1999/xlink" style="background: #FFFFFF;">
    <!-- Generator: Sketch 3.7.2 (28276) - http://www.bohemiancoding.com/sketch -->
    <title>flex-box-align-content</title>
    <desc>Created with Sketch.</desc>
    <defs></defs>
    <g id="Page-1" stroke="none" stroke-width="1" fill="none" fill-rule="evenodd">
        <g id="flex-box-align-content">
            <rect id="Rectangle-1" fill="#78B7E2" x="25.1523438" y="81" width="245.644531" height="225"></rect>
            <rect id="Rectangle-1-Copy" fill="#FDB24F" x="29.1523438" y="84" width="77.8053961" height="44" rx="2"></rect>
            <rect id="Rectangle-1-Copy-2" fill="#FDB24F" x="108.811469" y="84" width="77.8053961" height="44" rx="2"></rect>
            <rect id="Rectangle-1-Copy-3" fill="#FDB24F" x="188.470594" y="84" width="77.8053961" height="44" rx="2"></rect>
            <rect id="Rectangle-1-Copy-6" fill="#FDB24F" x="29.1523438" y="129" width="77.8053961" height="44" rx="2"></rect>
            <rect id="Rectangle-1-Copy-5" fill="#FDB24F" x="108.811469" y="129" width="77.8053961" height="44" rx="2"></rect>
            <rect id="Rectangle-1-Copy-4" fill="#FDB24F" x="188.470594" y="129" width="77.8053961" height="44" rx="2"></rect>
            <text id="flex-start" font-family="Avenir-Heavy, Avenir" font-size="28" font-weight="600" fill="#3F3F3F">
                <tspan x="89.6366094" y="200.22">flex-start</tspan>
            </text>
            <rect id="Rectangle-1-Copy-27" fill="#78B7E2" x="25.1523438" y="320" width="245.644531" height="225"></rect>
            <rect id="Rectangle-1-Copy-26" fill="#FDB24F" x="29.1523438" y="323" width="77.8053961" height="44" rx="2"></rect>
            <rect id="Rectangle-1-Copy-25" fill="#FDB24F" x="108.811469" y="323" width="77.8053961" height="44" rx="2"></rect>
            <rect id="Rectangle-1-Copy-24" fill="#FDB24F" x="188.470594" y="323" width="77.8053961" height="44" rx="2"></rect>
            <rect id="Rectangle-1-Copy-23" fill="#FDB24F" x="29.1523438" y="409" width="77.8053961" height="44" rx="2"></rect>
            <rect id="Rectangle-1-Copy-22" fill="#FDB24F" x="108.811469" y="409" width="77.8053961" height="44" rx="2"></rect>
            <rect id="Rectangle-1-Copy-21" fill="#FDB24F" x="188.470594" y="409" width="77.8053961" height="44" rx="2"></rect>
            <rect id="Rectangle-1-Copy-30" fill="#FDB24F" x="29.1523438" y="498" width="77.8053961" height="44" rx="2"></rect>
            <rect id="Rectangle-1-Copy-29" fill="#FDB24F" x="108.811469" y="498" width="77.8053961" height="44" rx="2"></rect>
            <rect id="Rectangle-1-Copy-28" fill="#FDB24F" x="188.470594" y="498" width="77.8053961" height="44" rx="2"></rect>
            <text id="space-between" font-family="Avenir-Heavy, Avenir" font-size="28" font-weight="600" fill="#3F3F3F">
                <tspan x="48.6726094" y="439.22">space-between</tspan>
            </text>
            <rect id="Rectangle-1-Copy-40" fill="#78B7E2" x="285.152344" y="320" width="245.644531" height="225"></rect>
            <rect id="Rectangle-1-Copy-39" fill="#FDB24F" x="289.152344" y="343" width="77.8053961" height="44" rx="2"></rect>
            <rect id="Rectangle-1-Copy-38" fill="#FDB24F" x="368.811469" y="343" width="77.8053961" height="44" rx="2"></rect>
            <rect id="Rectangle-1-Copy-37" fill="#FDB24F" x="448.470594" y="343" width="77.8053961" height="44" rx="2"></rect>
            <rect id="Rectangle-1-Copy-36" fill="#FDB24F" x="289.152344" y="409" width="77.8053961" height="44" rx="2"></rect>
            <rect id="Rectangle-1-Copy-35" fill="#FDB24F" x="368.811469" y="409" width="77.8053961" height="44" rx="2"></rect>
            <rect id="Rectangle-1-Copy-34" fill="#FDB24F" x="448.470594" y="409" width="77.8053961" height="44" rx="2"></rect>
            <rect id="Rectangle-1-Copy-33" fill="#FDB24F" x="289.152344" y="476" width="77.8053961" height="44" rx="2"></rect>
            <rect id="Rectangle-1-Copy-32" fill="#FDB24F" x="368.811469" y="476" width="77.8053961" height="44" rx="2"></rect>
            <rect id="Rectangle-1-Copy-31" fill="#FDB24F" x="448.470594" y="476" width="77.8053961" height="44" rx="2"></rect>
            <text id="space-around" font-family="Avenir-Heavy, Avenir" font-size="28" font-weight="600" fill="#3F3F3F">
                <tspan x="319.830609" y="439.22">space-around</tspan>
            </text>
            <rect id="Rectangle-1-Copy-50" fill="#78B7E2" x="545.152344" y="320" width="245.644531" height="225"></rect>
            <rect id="Rectangle-1-Copy-49" fill="#FDB24F" x="549.152344" y="323" width="77.8053961" height="71.5400009" rx="2"></rect>
            <rect id="Rectangle-1-Copy-48" fill="#FDB24F" x="628.811469" y="323" width="77.8053961" height="71.5400009" rx="2"></rect>
            <rect id="Rectangle-1-Copy-47" fill="#FDB24F" x="708.470594" y="323" width="77.8053961" height="71.5400009" rx="2"></rect>
            <rect id="Rectangle-1-Copy-53" fill="#FDB24F" x="549.152344" y="397" width="77.8053961" height="71.5400009" rx="2"></rect>
            <rect id="Rectangle-1-Copy-52" fill="#FDB24F" x="628.811469" y="397" width="77.8053961" height="71.5400009" rx="2"></rect>
            <rect id="Rectangle-1-Copy-51" fill="#FDB24F" x="708.470594" y="397" width="77.8053961" height="71.5400009" rx="2"></rect>
            <rect id="Rectangle-1-Copy-56" fill="#FDB24F" x="549.152344" y="470" width="77.8053961" height="71.5400009" rx="2"></rect>
            <rect id="Rectangle-1-Copy-55" fill="#FDB24F" x="628.811469" y="470" width="77.8053961" height="71.5400009" rx="2"></rect>
            <rect id="Rectangle-1-Copy-54" fill="#FDB24F" x="708.470594" y="470" width="77.8053961" height="71.5400009" rx="2"></rect>
            <text id="stretch" font-family="Avenir-Heavy, Avenir" font-size="28" font-weight="600" fill="#3F3F3F">
                <tspan x="622.600609" y="439.22">stretch</tspan>
            </text>
            <rect id="Rectangle-1-Copy-20" fill="#78B7E2" x="545.152344" y="81" width="245.644531" height="225"></rect>
            <rect id="Rectangle-1-Copy-19" fill="#FDB24F" x="549.152344" y="84" width="77.8053961" height="44" rx="2"></rect>
            <rect id="Rectangle-1-Copy-18" fill="#FDB24F" x="628.811469" y="84" width="77.8053961" height="44" rx="2"></rect>
            <rect id="Rectangle-1-Copy-17" fill="#FDB24F" x="708.470594" y="84" width="77.8053961" height="44" rx="2"></rect>
            <rect id="Rectangle-1-Copy-16" fill="#FDB24F" x="549.152344" y="129" width="77.8053961" height="44" rx="2"></rect>
            <rect id="Rectangle-1-Copy-15" fill="#FDB24F" x="628.811469" y="129" width="77.8053961" height="44" rx="2"></rect>
            <rect id="Rectangle-1-Copy-14" fill="#FDB24F" x="708.470594" y="129" width="77.8053961" height="44" rx="2"></rect>
            <text id="flex-end" font-family="Avenir-Heavy, Avenir" font-size="28" font-weight="600" fill="#3F3F3F">
                <tspan x="614.816609" y="200.22">flex-end</tspan>
            </text>
            <rect id="Rectangle-1-Copy-13" fill="#78B7E2" x="285.152344" y="81" width="245.644531" height="225"></rect>
            <rect id="Rectangle-1-Copy-12" fill="#FDB24F" x="289.152344" y="148" width="77.8053961" height="44" rx="2"></rect>
            <rect id="Rectangle-1-Copy-11" fill="#FDB24F" x="368.811469" y="148" width="77.8053961" height="44" rx="2"></rect>
            <rect id="Rectangle-1-Copy-10" fill="#FDB24F" x="448.470594" y="148" width="77.8053961" height="44" rx="2"></rect>
            <rect id="Rectangle-1-Copy-9" fill="#FDB24F" x="289.152344" y="193" width="77.8053961" height="44" rx="2"></rect>
            <rect id="Rectangle-1-Copy-8" fill="#FDB24F" x="368.811469" y="193" width="77.8053961" height="44" rx="2"></rect>
            <rect id="Rectangle-1-Copy-7" fill="#FDB24F" x="448.470594" y="193" width="77.8053961" height="44" rx="2"></rect>
            <text id="center" font-family="Avenir-Heavy, Avenir" font-size="28" font-weight="600" fill="#3F3F3F">
                <tspan x="366.226609" y="200.22">center</tspan>
            </text>
            <path d="M29.5,41.5 L776.5,41.5" id="Line" stroke="#E8673D" stroke-width="7" stroke-linecap="round"></path>
            <path id="Line-decoration-1" d="M29.5,38.5 L29.5,44.5" stroke="#E8673D" stroke-width="7" stroke-linecap="round"></path>
            <path id="Line-decoration-2" d="M765.7,44.5 L776.5,41.5 L765.7,38.5" stroke="#E8673D" stroke-width="7" stroke-linecap="round"></path>
            <rect id="Rectangle-5" fill="#E8673D" x="84.546875" y="20.2" width="156" height="41" rx="3"></rect>
            <text id="Main-Axis" font-family="Avenir-Heavy, Avenir" font-size="28" font-weight="600" fill="#3F3F3F">
                <tspan x="100.716" y="49.2">Main Axis</tspan>
            </text>
            <path d="M835.5,41.5 L835.5,534.5" id="Line-Copy" stroke="#E8673D" stroke-width="7" stroke-linecap="round"></path>
            <path id="Line-Copy-decoration-1" d="M838.5,41.5 L832.5,41.5" stroke="#E8673D" stroke-width="7" stroke-linecap="round"></path>
            <path id="Line-Copy-decoration-2" d="M832.5,523.7 L835.5,534.5 L838.5,523.7" stroke="#E8673D" stroke-width="7" stroke-linecap="round"></path>
            <rect id="Rectangle-5-Copy" fill="#E8673D" transform="translate(837.546875, 173.700000) rotate(-270.000000) translate(-837.546875, -173.700000) " x="759.546875" y="153.2" width="156" height="41" rx="3"></rect>
            <text id="Cross-Axis" transform="translate(839.500000, 173.200000) rotate(-270.000000) translate(-839.500000, -173.200000) " font-family="Avenir-Heavy, Avenir" font-size="28" font-weight="600" fill="#3F3F3F">
                <tspan x="771.866" y="182.2">Cross Axis</tspan>
            </text>
        </g>
    </g>
</svg>