<?xml version="1.0" encoding="UTF-8" standalone="no"?>
<svg width="1030px" height="554px" viewBox="0 0 1030 554" version="1.1" xmlns="http://www.w3.org/2000/svg" xmlns:xlink="http://www.w3.org/1999/xlink" style="background: #FFFFFF;">
    <!-- Generator: Sketch 3.7.2 (28276) - http://www.bohemiancoding.com/sketch -->
    <title>flex-box-align-items</title>
    <desc>Created with Sketch.</desc>
    <defs></defs>
    <g id="Page-1" stroke="none" stroke-width="1" fill="none" fill-rule="evenodd">
        <g id="flex-box-align-items">
            <rect id="Rectangle-1" fill="#78B7E2" x="147.152344" y="12" width="815.847656" height="102.613281"></rect>
            <rect id="Rectangle-1-Copy" fill="#FDB24F" x="153.152344" y="16" width="264.187895" height="35.2400017" rx="2"></rect>
            <rect id="Rectangle-1-Copy-2" fill="#FDB24F" x="423.634568" y="16" width="264.187895" height="35.2400017" rx="2"></rect>
            <rect id="Rectangle-1-Copy-3" fill="#FDB24F" x="694.116793" y="16" width="264.187895" height="35.2400017" rx="2"></rect>
            <text id="flex-start" font-family="Avenir-Heavy, Avenir" font-size="28" font-weight="600" fill="#3F3F3F">
                <tspan x="12.162" y="70">flex-start</tspan>
            </text>
            <rect id="Rectangle-1-Copy-7" fill="#78B7E2" x="147.152344" y="118" width="815.847656" height="102.613281"></rect>
            <text id="flex-end" font-family="Avenir-Heavy, Avenir" font-size="28" font-weight="600" fill="#3F3F3F">
                <tspan x="22.342" y="176">flex-end</tspan>
            </text>
            <rect id="Rectangle-1-Copy-11" fill="#78B7E2" x="147.152344" y="225" width="815.847656" height="102.613281"></rect>
            <text id="center" font-family="Avenir-Heavy, Avenir" font-size="28" font-weight="600" fill="#3F3F3F">
                <tspan x="45.252" y="283">center</tspan>
            </text>
            <rect id="Rectangle-1-Copy-15" fill="#78B7E2" x="147.152344" y="332" width="815.847656" height="102.613281"></rect>
            <text id="stretch" font-family="Avenir-Heavy, Avenir" font-size="28" font-weight="600" fill="#3F3F3F">
                <tspan x="38.126" y="390">stretch</tspan>
            </text>
            <rect id="Rectangle-1-Copy-19" fill="#78B7E2" x="147.152344" y="438" width="815.847656" height="102.613281"></rect>
            <text id="baseline" font-family="Avenir-Heavy, Avenir" font-size="28" font-weight="600" fill="#3F3F3F">
                <tspan x="21.058" y="496">baseline</tspan>
            </text>
            <rect id="Rectangle-1-Copy-6" fill="#FDB24F" x="153.152344" y="180" width="264.187895" height="35.2400017" rx="2"></rect>
            <rect id="Rectangle-1-Copy-5" fill="#FDB24F" x="423.634568" y="180" width="264.187895" height="35.2400017" rx="2"></rect>
            <rect id="Rectangle-1-Copy-4" fill="#FDB24F" x="694.116793" y="180" width="264.187895" height="35.2400017" rx="2"></rect>
            <rect id="Rectangle-1-Copy-10" fill="#FDB24F" x="153.152344" y="256" width="264.187895" height="35.2400017" rx="2"></rect>
            <rect id="Rectangle-1-Copy-9" fill="#FDB24F" x="423.634568" y="256" width="264.187895" height="35.2400017" rx="2"></rect>
            <rect id="Rectangle-1-Copy-8" fill="#FDB24F" x="694.116793" y="256" width="264.187895" height="35.2400017" rx="2"></rect>
            <rect id="Rectangle-1-Copy-18" fill="#FDB24F" x="153.152344" y="443" width="264.187895" height="81.5390625" rx="2"></rect>
            <rect id="Rectangle-1-Copy-17" fill="#FDB24F" x="423.634568" y="455.240002" width="264.187895" height="38" rx="2"></rect>
            <rect id="Rectangle-1-Copy-16" fill="#FDB24F" x="694.116793" y="451.700939" width="264.187895" height="54.5390625" rx="2"></rect>
            <rect id="Rectangle-1-Copy-14" fill="#FDB24F" x="153.152344" y="336" width="264.187895" height="94.6100006" rx="2"></rect>
            <rect id="Rectangle-1-Copy-13" fill="#FDB24F" x="423.634568" y="336" width="264.187895" height="94.6100006" rx="2"></rect>
            <rect id="Rectangle-1-Copy-12" fill="#FDB24F" x="694.116793" y="336" width="264.187895" height="94.6100006" rx="2"></rect>
            <path d="M953.5,484 L157.5,484" id="Line" stroke="#E8673D" stroke-width="2" stroke-linecap="square" stroke-dasharray="5"></path>
            <text id="Lorem-ipsum-dolor-si" font-family="ArialMT, Arial" font-size="19.5" font-weight="normal" fill="#292929">
                <tspan x="158" y="476.700939">Lorem ipsum dolor sit amet, consectetur adipiscing elit. Aenean semper vestibulum tempus.</tspan>
            </text>
            <path d="M995.5,14.5 L995.5,527.5" id="Line-Copy" stroke="#E8673D" stroke-width="7" stroke-linecap="round"></path>
            <path id="Line-Copy-decoration-1" d="M998.5,14.5 L992.5,14.5" stroke="#E8673D" stroke-width="7" stroke-linecap="round"></path>
            <path id="Line-Copy-decoration-2" d="M992.5,516.7 L995.5,527.5 L998.5,516.7" stroke="#E8673D" stroke-width="7" stroke-linecap="round"></path>
            <rect id="Rectangle-5-Copy" fill="#E8673D" transform="translate(997.546875, 146.700000) rotate(-270.000000) translate(-997.546875, -146.700000) " x="919.546875" y="126.2" width="156" height="41" rx="3"></rect>
            <text id="Cross-Axis" transform="translate(999.500000, 146.200000) rotate(-270.000000) translate(-999.500000, -146.200000) " font-family="Avenir-Heavy, Avenir" font-size="28" font-weight="600" fill="#3F3F3F">
                <tspan x="931.866" y="155.2">Cross Axis</tspan>
            </text>
        </g>
    </g>
</svg>