<?xml version="1.0" encoding="UTF-8" standalone="no"?>
<svg width="1059px" height="617px" viewBox="0 0 1059 617" version="1.1" xmlns="http://www.w3.org/2000/svg" xmlns:xlink="http://www.w3.org/1999/xlink" style="background: #FFFFFF;">
    <!-- Generator: Sketch 3.7.2 (28276) - http://www.bohemiancoding.com/sketch -->
    <title>flex-box-justify-content</title>
    <desc>Created with Sketch.</desc>
    <defs></defs>
    <g id="Page-1" stroke="none" stroke-width="1" fill="none" fill-rule="evenodd">
        <g id="flex-box-justify-content">
            <rect id="Rectangle-1" fill="#78B7E2" x="233.152344" y="76" width="815.847656" height="102.613281"></rect>
            <rect id="Rectangle-1-Copy" fill="#FDB24F" x="237.152344" y="79" width="132.256086" height="96.2430123" rx="2"></rect>
            <rect id="Rectangle-1-Copy-2" fill="#FDB24F" x="372.559457" y="79" width="132.256086" height="96.2430123" rx="2"></rect>
            <rect id="Rectangle-1-Copy-3" fill="#FDB24F" x="507.966571" y="79" width="132.256086" height="96.2430123" rx="2"></rect>
            <text id="flex-start" font-family="Avenir-Heavy, Avenir" font-size="28" font-weight="600" fill="#3F3F3F">
                <tspan x="98.162" y="134">flex-start</tspan>
            </text>
            <rect id="Rectangle-1-Copy-7" fill="#78B7E2" x="233.152344" y="182" width="815.847656" height="102.613281"></rect>
            <rect id="Rectangle-1-Copy-6" fill="#FDB24F" x="642.152344" y="185" width="132.256086" height="96.2430123" rx="2"></rect>
            <rect id="Rectangle-1-Copy-5" fill="#FDB24F" x="777.559457" y="185" width="132.256086" height="96.2430123" rx="2"></rect>
            <rect id="Rectangle-1-Copy-4" fill="#FDB24F" x="912.966571" y="185" width="132.256086" height="96.2430123" rx="2"></rect>
            <text id="flex-end" font-family="Avenir-Heavy, Avenir" font-size="28" font-weight="600" fill="#3F3F3F">
                <tspan x="108.342" y="240">flex-end</tspan>
            </text>
            <rect id="Rectangle-1-Copy-11" fill="#78B7E2" x="233.152344" y="289" width="815.847656" height="102.613281"></rect>
            <rect id="Rectangle-1-Copy-10" fill="#FDB24F" x="432.152344" y="292" width="132.256086" height="96.2430123" rx="2"></rect>
            <rect id="Rectangle-1-Copy-9" fill="#FDB24F" x="567.559457" y="292" width="132.256086" height="96.2430123" rx="2"></rect>
            <rect id="Rectangle-1-Copy-8" fill="#FDB24F" x="702.966571" y="292" width="132.256086" height="96.2430123" rx="2"></rect>
            <text id="center" font-family="Avenir-Heavy, Avenir" font-size="28" font-weight="600" fill="#3F3F3F">
                <tspan x="131.252" y="347">center</tspan>
            </text>
            <rect id="Rectangle-1-Copy-15" fill="#78B7E2" x="233.152344" y="396" width="815.847656" height="102.613281"></rect>
            <rect id="Rectangle-1-Copy-14" fill="#FDB24F" x="237.152344" y="399" width="132.256086" height="96.2430123" rx="2"></rect>
            <rect id="Rectangle-1-Copy-13" fill="#FDB24F" x="567.559457" y="399" width="132.256086" height="96.2430123" rx="2"></rect>
            <rect id="Rectangle-1-Copy-12" fill="#FDB24F" x="912.966571" y="399" width="132.256086" height="96.2430123" rx="2"></rect>
            <text id="space-between" font-family="Avenir-Heavy, Avenir" font-size="28" font-weight="600" fill="#3F3F3F">
                <tspan x="16.198" y="454">space-between</tspan>
            </text>
            <rect id="Rectangle-1-Copy-19" fill="#78B7E2" x="233.152344" y="502" width="815.847656" height="102.613281"></rect>
            <rect id="Rectangle-1-Copy-18" fill="#FDB24F" x="302.152344" y="505" width="132.256086" height="96.2430123" rx="2"></rect>
            <rect id="Rectangle-1-Copy-17" fill="#FDB24F" x="567.559457" y="505" width="132.256086" height="96.2430123" rx="2"></rect>
            <rect id="Rectangle-1-Copy-16" fill="#FDB24F" x="811.966571" y="505" width="132.256086" height="96.2430123" rx="2"></rect>
            <text id="space-around" font-family="Avenir-Heavy, Avenir" font-size="28" font-weight="600" fill="#3F3F3F">
                <tspan x="38.356" y="560">space-around</tspan>
            </text>
            <path d="M19.5,41.5 L1030.5,41.5" id="Line" stroke="#E8673D" stroke-width="7" stroke-linecap="round"></path>
            <path id="Line-decoration-1" d="M19.5,38.5 L19.5,44.5" stroke="#E8673D" stroke-width="7" stroke-linecap="round"></path>
            <path id="Line-decoration-2" d="M1019.7,44.5 L1030.5,41.5 L1019.7,38.5" stroke="#E8673D" stroke-width="7" stroke-linecap="round"></path>
            <rect id="Rectangle-5" fill="#E8673D" x="74.546875" y="20.2" width="156" height="41" rx="3"></rect>
            <text id="Main-Axis" font-family="Avenir-Heavy, Avenir" font-size="28" font-weight="600" fill="#3F3F3F">
                <tspan x="90.716" y="49.2">Main Axis</tspan>
            </text>
        </g>
    </g>
</svg>