<?xml version="1.0" encoding="UTF-8"?>
<svg width="157px" height="45px" viewBox="0 0 157 45" version="1.1" xmlns="http://www.w3.org/2000/svg" xmlns:xlink="http://www.w3.org/1999/xlink">
    <!-- Generator: Sketch 54.1 (76490) - https://sketchapp.com -->
    <title>icon-shopify</title>
    <desc>Created with Sketch.</desc>
    <g id="Page-1" stroke="none" stroke-width="1" fill="none" fill-rule="evenodd">
        <g id="icon-shopify" fill-rule="nonzero">
            <path d="M33.9355628,8.66761364 C33.9099511,8.4375 33.7050571,8.33522727 33.5513866,8.33522727 C33.3977162,8.33522727 30.0425775,8.07954545 30.0425775,8.07954545 C30.0425775,8.07954545 27.7119086,5.75284091 27.4301794,5.52272727 C27.174062,5.26704545 26.6874388,5.34375 26.4825449,5.39488636 C26.4569331,5.39488636 25.97031,5.54829545 25.1763458,5.80397727 C24.3823817,3.52840909 23.0249592,1.45738636 20.5918434,1.45738636 L20.3613377,1.45738636 C19.6954323,0.588068182 18.824633,0.178977273 18.1075041,0.178977273 C12.4729201,0.178977273 9.75807504,7.21022727 8.91288744,10.7897727 C6.71027732,11.4801136 5.14796085,11.9403409 4.96867863,12.0170455 C3.73931485,12.4005682 3.7137031,12.4261364 3.56003263,13.5767045 C3.4319739,14.4460227 0.23050571,39.1704545 0.23050571,39.1704545 L25.1507341,43.8238636 L38.6737357,40.9090909 C38.6993475,40.8579545 33.9611746,8.89772727 33.9355628,8.66761364 Z M23.7933116,6.16193182 C23.1786297,6.34090909 22.4358891,6.57102273 21.6931485,6.82670455 L21.6931485,6.36647727 C21.6931485,4.98579545 21.5138662,3.86079545 21.1809135,2.96590909 C22.4615008,3.11931818 23.2554649,4.52556818 23.7933116,6.16193182 Z M19.6185971,3.24715909 C19.9515498,4.11647727 20.1820555,5.34375 20.1820555,7.03125 L20.1820555,7.28693182 C18.7990212,7.72159091 17.3391517,8.15625 15.8280587,8.64204545 C16.6732463,5.42045455 18.2867863,3.83522727 19.6185971,3.24715909 Z M17.9794454,1.66193182 C18.2355628,1.66193182 18.4916803,1.76420455 18.6965742,1.91761364 C16.8781403,2.76136364 14.9572594,4.88352273 14.1632953,9.17897727 C12.9595432,9.5625 11.8070147,9.89488636 10.7057096,10.2528409 C11.6277325,6.98011364 13.9327896,1.66193182 17.9794454,1.66193182 L17.9794454,1.66193182 Z" id="Shape" fill="#95BF47"></path>
            <path d="M33.5513866,8.28409091 C33.3977162,8.28409091 30.0425775,8.02840909 30.0425775,8.02840909 C30.0425775,8.02840909 27.7119086,5.70170455 27.4301794,5.47159091 C27.3277325,5.36931818 27.1996737,5.31818182 27.0972268,5.31818182 L25.2275693,43.8238636 L38.750571,40.9090909 C38.750571,40.9090909 34.012398,8.89772727 33.9867863,8.66761364 C33.8843393,8.4375 33.7050571,8.33522727 33.5513866,8.28409091 L33.5513866,8.28409091 Z" id="Path" fill="#5E8E3E"></path>
            <path d="M20.5918434,15.75 L18.9526917,20.6846591 C18.9526917,20.6846591 17.4672104,19.8920455 15.7,19.8920455 C13.0619902,19.8920455 12.9339315,21.5539773 12.9339315,21.9630682 C12.9339315,24.2130682 18.824633,25.0823864 18.824633,30.375 C18.824633,34.5426136 16.1866232,37.2272727 12.6265905,37.2272727 C8.32381729,37.2272727 6.17243067,34.5681818 6.17243067,34.5681818 L7.32495922,30.7840909 C7.32495922,30.7840909 9.57879282,32.7272727 11.474062,32.7272727 C12.7290375,32.7272727 13.2412724,31.7556818 13.2412724,31.0397727 C13.2412724,28.0994318 8.42626427,27.9715909 8.42626427,23.1136364 C8.42626427,19.0482955 11.3460033,15.1107955 17.2623165,15.1107955 C19.4649266,15.0852273 20.5918434,15.75 20.5918434,15.75 L20.5918434,15.75 Z" id="Path" fill="#FFFFFF"></path>
            <path d="M54.450571,25.03125 C53.0931485,24.3153409 52.4016313,23.6761364 52.4016313,22.8323864 C52.4016313,21.7585227 53.3748777,21.0681818 54.8859706,21.0681818 C56.6531811,21.0681818 58.2154976,21.7840909 58.2154976,21.7840909 L59.4448613,18.0255682 C59.4448613,18.0255682 58.3179445,17.15625 54.9884176,17.15625 C50.3526917,17.15625 47.1256117,19.8153409 47.1256117,23.5482955 C47.1256117,25.6704545 48.6367047,27.28125 50.6344209,28.4318182 C52.2735726,29.3267045 52.837031,29.9914773 52.837031,30.9630682 C52.837031,31.9602273 52.0174551,32.7784091 50.5063622,32.7784091 C48.2781403,32.7784091 46.1523654,31.6278409 46.1523654,31.6278409 L44.8461664,35.3863636 C44.8461664,35.3863636 46.7926591,36.6903409 50.0709625,36.6903409 C54.8347471,36.6903409 58.2923328,34.3380682 58.2923328,30.1193182 C58.2411093,27.8181818 56.5251223,26.2329545 54.450571,25.03125 L54.450571,25.03125 Z M73.4544861,17.1051136 C71.0982055,17.1051136 69.2541599,18.2301136 67.8455139,19.9176136 L67.7942904,19.8920455 L69.84323,9.25568182 L64.5415987,9.25568182 L59.3680261,36.3579545 L64.6696574,36.3579545 L66.4368679,27.1022727 C67.128385,23.5994318 68.9468189,21.4261364 70.6371941,21.4261364 C71.8409462,21.4261364 72.3019576,22.2443182 72.3019576,23.3948864 C72.3019576,24.1107955 72.2507341,25.03125 72.0714519,25.7471591 L70.0737357,36.3579545 L75.375367,36.3579545 L77.4499184,25.4147727 C77.6804241,24.2642045 77.8340946,22.8835227 77.8340946,21.9375 C77.8084829,18.8948864 76.2461664,17.1051136 73.4544861,17.1051136 L73.4544861,17.1051136 Z M89.8203915,17.1051136 C83.4174551,17.1051136 79.1915171,22.8579545 79.1915171,29.2755682 C79.1915171,33.3664773 81.7270799,36.6903409 86.4908646,36.6903409 C92.7657423,36.6903409 96.9916803,31.0909091 96.9916803,24.5198864 C97.017292,20.7102273 94.8146819,17.1051136 89.8203915,17.1051136 Z M87.2079935,32.6505682 C85.3895595,32.6505682 84.6468189,31.1164773 84.6468189,29.1732955 C84.6468189,26.1306818 86.2091354,21.1960227 89.1032626,21.1960227 C90.9729201,21.1960227 91.6132137,22.8323864 91.6132137,24.3920455 C91.6132137,27.6392045 89.9996737,32.6505682 87.2079935,32.6505682 Z M110.591517,17.1051136 C107.005873,17.1051136 104.982545,20.2755682 104.982545,20.2755682 L104.931321,20.2755682 L105.238662,17.4375 L100.526101,17.4375 C100.295595,19.3551136 99.8601958,22.2954545 99.4504078,24.46875 L95.7879282,43.875 L101.08956,43.875 L102.575041,36.0255682 L102.7031,36.0255682 C102.7031,36.0255682 103.804405,36.7159091 105.802121,36.7159091 C112.051387,36.7159091 116.123654,30.3238636 116.123654,23.8806818 C116.098042,20.3011364 114.484502,17.1051136 110.591517,17.1051136 L110.591517,17.1051136 Z M105.520392,32.7017045 C104.137357,32.7017045 103.317781,31.9090909 103.317781,31.9090909 L104.188581,26.9744318 C104.803263,23.6505682 106.544861,21.4772727 108.388907,21.4772727 C110.028059,21.4772727 110.514682,22.9857955 110.514682,24.3920455 C110.540294,27.8181818 108.491354,32.7017045 105.520392,32.7017045 L105.520392,32.7017045 Z M123.679119,9.51136364 C121.988744,9.51136364 120.631321,10.8664773 120.631321,12.5795455 C120.631321,14.1392045 121.630179,15.2386364 123.141272,15.2386364 L123.192496,15.2386364 C124.857259,15.2386364 126.265905,14.1136364 126.291517,12.1704545 C126.317129,10.6107955 125.267047,9.51136364 123.679119,9.51136364 L123.679119,9.51136364 Z M116.251713,36.3323864 L121.553344,36.3323864 L125.138989,17.5142045 L119.811746,17.5142045 L116.251713,36.3323864 Z M138.66199,17.4886364 L134.973899,17.4886364 L135.153181,16.6193182 C135.460522,14.8039773 136.536215,13.21875 138.329038,13.21875 C139.276672,13.21875 140.019413,13.5 140.019413,13.5 L141.043883,9.33238636 C141.043883,9.33238636 140.147471,8.87215909 138.149755,8.87215909 C136.280098,8.87215909 134.384829,9.40909091 132.950571,10.6363636 C131.132137,12.1704545 130.286949,14.3948864 129.877162,16.6448864 L129.723491,17.5142045 L127.239152,17.5142045 L126.445188,21.5284091 L128.929527,21.5284091 L126.112235,36.3579545 L131.413866,36.3579545 L134.231158,21.5284091 L137.893638,21.5284091 L138.66199,17.4886364 L138.66199,17.4886364 Z M151.442251,17.5142045 C151.442251,17.5142045 148.112724,25.875 146.652855,30.4517045 L146.601631,30.4517045 C146.499184,28.96875 145.295432,17.5142045 145.295432,17.5142045 L139.712072,17.5142045 L142.91354,34.7471591 C142.964763,35.1306818 142.939152,35.3607955 142.785481,35.6164773 C142.170799,36.8181818 141.120718,37.96875 139.891354,38.8125 C138.892496,39.5284091 137.765579,40.0142045 136.869168,40.3210227 L138.354649,44.8210227 C139.430343,44.5909091 141.684176,43.6960227 143.553834,41.9318182 C145.961338,39.6818182 148.215171,36.1789773 150.520228,31.4232955 L157,17.4886364 L151.442251,17.4886364 L151.442251,17.5142045 Z" id="Shape" fill="#000000"></path>
        </g>
    </g>
</svg>