<?xml version="1.0" encoding="UTF-8"?>
<svg width="51px" height="45px" viewBox="0 0 51 45" version="1.1" xmlns="http://www.w3.org/2000/svg" xmlns:xlink="http://www.w3.org/1999/xlink">
    <!-- Generator: Sketch 54.1 (76490) - https://sketchapp.com -->
    <title>icon-react</title>
    <desc>Created with Sketch.</desc>
    <g id="Page-1" stroke="none" stroke-width="1" fill="none" fill-rule="evenodd">
        <g id="icon-react" fill="#61DAFB" fill-rule="nonzero">
            <path d="M50.927439,22.5 C50.927439,19.1533181 46.7085366,15.9816934 40.2402439,14.0148741 C41.7329268,7.46567506 41.0695122,2.25514874 38.1463415,0.586956522 C37.472561,0.195652174 36.6847561,0.0102974828 35.8243902,0.0102974828 L35.8243902,2.30663616 C36.3012195,2.30663616 36.6847561,2.3993135 37.0060976,2.57437071 C38.4158537,3.37757437 39.027439,6.43592677 38.5506098,10.3695652 C38.4365854,11.3375286 38.25,12.3569794 38.0219512,13.3970252 C35.9902439,12.902746 33.7719512,12.5217391 31.4396341,12.2745995 C30.0402439,10.3695652 28.5890244,8.6395881 27.127439,7.12585812 C30.5067073,4.00572082 33.6786585,2.29633867 35.8347561,2.29633867 L35.8347561,0 C35.8347561,0 35.8347561,0 35.8347561,0 C32.9841463,0 29.252439,2.01830664 25.4792683,5.5194508 C21.7060976,2.0389016 17.9743902,0.0411899314 15.1237805,0.0411899314 L15.1237805,2.3375286 C17.2695122,2.3375286 20.4518293,4.03661327 23.8310976,7.13615561 C22.379878,8.64988558 20.9286585,10.3695652 19.55,12.2745995 C17.2073171,12.5217391 14.9890244,12.902746 12.9573171,13.4073227 C12.7189024,12.3775744 12.5426829,11.3787185 12.4182927,10.4210526 C11.9310976,6.48741419 12.5323171,3.42906178 13.9317073,2.61556064 C14.2426829,2.43020595 14.6469512,2.34782609 15.1237805,2.34782609 L15.1237805,0.0514874142 C15.1237805,0.0514874142 15.1237805,0.0514874142 15.1237805,0.0514874142 C14.2530488,0.0514874142 13.4652439,0.236842105 12.7810976,0.628146453 C9.86829268,2.29633867 9.2152439,7.49656751 10.7182927,14.0251716 C4.27073171,16.0022883 0.0725609756,19.1636156 0.0725609756,22.5 C0.0725609756,25.8466819 4.29146341,29.0183066 10.7597561,30.9851259 C9.26707317,37.5343249 9.9304878,42.7448513 12.8536585,44.4130435 C13.527439,44.8043478 14.3152439,44.9897025 15.1859756,44.9897025 C18.0365854,44.9897025 21.7682927,42.9713959 25.5414634,39.4702517 C29.3146341,42.9508009 33.0463415,44.9485126 35.8969512,44.9485126 C36.7676829,44.9485126 37.5554878,44.7631579 38.2396341,44.3718535 C41.152439,42.7036613 41.8054878,37.5034325 40.302439,30.9748284 C46.7292683,29.0080092 50.927439,25.8363844 50.927439,22.5 Z M37.4310976,15.6315789 C37.047561,16.9599542 36.5707317,18.3295195 36.0317073,19.6990847 C35.6067073,18.875286 35.1609756,18.0514874 34.6737805,17.2276888 C34.1969512,16.4038902 33.6890244,15.6006865 33.1810976,14.8180778 C34.6530488,15.0343249 36.0731707,15.3020595 37.4310976,15.6315789 Z M32.6835366,26.5983982 C31.875,27.9885584 31.0457317,29.3066362 30.1853659,30.5320366 C28.6408537,30.6659039 27.0756098,30.7379863 25.5,30.7379863 C23.9347561,30.7379863 22.3695122,30.6659039 20.8353659,30.5423341 C19.975,29.3169336 19.1353659,28.0091533 18.3268293,26.6292906 C17.5390244,25.2803204 16.8237805,23.9107551 16.1707317,22.5308924 C16.8134146,21.1510297 17.5390244,19.771167 18.3164634,18.4221968 C19.125,17.0320366 19.9542683,15.7139588 20.8146341,14.4885584 C22.3591463,14.3546911 23.9243902,14.2826087 25.5,14.2826087 C27.0652439,14.2826087 28.6304878,14.3546911 30.1646341,14.4782609 C31.025,15.7036613 31.8646341,17.0114416 32.6731707,18.3913043 C33.4609756,19.7402746 34.1762195,21.1098398 34.8292683,22.4897025 C34.1762195,23.8695652 33.4609756,25.2494279 32.6835366,26.5983982 Z M36.0317073,25.2597254 C36.5914634,26.6395881 37.0682927,28.0194508 37.4621951,29.3581236 C36.1042683,29.687643 34.6737805,29.9656751 33.1914634,30.1819222 C33.6993902,29.389016 34.2073171,28.5755149 34.6841463,27.7414188 C35.1609756,26.9176201 35.6067073,26.083524 36.0317073,25.2597254 Z M25.5207317,36.2471396 C24.5567073,35.2585812 23.5926829,34.1567506 22.6390244,32.9519451 C23.5719512,32.993135 24.5256098,33.0240275 25.4896341,33.0240275 C26.4640244,33.0240275 27.4280488,33.0034325 28.3713415,32.9519451 C27.4384146,34.1567506 26.4743902,35.2585812 25.5207317,36.2471396 Z M17.8085366,30.1819222 C16.3365854,29.9656751 14.9164634,29.6979405 13.5585366,29.3684211 C13.9420732,28.0400458 14.4189024,26.6704805 14.9579268,25.3009153 C15.3829268,26.124714 15.8286585,26.9485126 16.3158537,27.7723112 C16.8030488,28.5961098 17.3006098,29.3993135 17.8085366,30.1819222 Z M25.4689024,8.75286041 C26.4329268,9.74141876 27.3969512,10.8432494 28.3506098,12.0480549 C27.4176829,12.006865 26.4640244,11.9759725 25.5,11.9759725 C24.5256098,11.9759725 23.5615854,11.9965675 22.6182927,12.0480549 C23.5512195,10.8432494 24.5152439,9.74141876 25.4689024,8.75286041 Z M17.7981707,14.8180778 C17.2902439,15.610984 16.7823171,16.4244851 16.3054878,17.2585812 C15.8286585,18.0823799 15.3829268,18.9061785 14.9579268,19.7299771 C14.3981707,18.3501144 13.9213415,16.9702517 13.527439,15.6315789 C14.8853659,15.312357 16.3158537,15.0343249 17.7981707,14.8180778 Z M8.41707317,27.7105263 C4.74756098,26.1556064 2.37378049,24.1167048 2.37378049,22.5 C2.37378049,20.8832952 4.74756098,18.8340961 8.41707317,17.2894737 C9.30853659,16.9084668 10.2829268,16.5686499 11.2884146,16.2494279 C11.8792683,18.2677346 12.6567073,20.3684211 13.6207317,22.520595 C12.6670732,24.6624714 11.9,26.7528604 11.3195122,28.7608696 C10.2932927,28.4416476 9.31890244,28.0915332 8.41707317,27.7105263 Z M13.9939024,42.4256293 C12.5841463,41.6224256 11.972561,38.5640732 12.4493902,34.6304348 C12.5634146,33.6624714 12.75,32.6430206 12.9780488,31.6029748 C15.0097561,32.097254 17.2280488,32.4782609 19.5603659,32.7254005 C20.9597561,34.6304348 22.4109756,36.3604119 23.872561,37.8741419 C20.4932927,40.9942792 17.3213415,42.7036613 15.1652439,42.7036613 C14.6987805,42.6933638 14.304878,42.6006865 13.9939024,42.4256293 Z M38.5817073,34.5789474 C39.0689024,38.5125858 38.4676829,41.5709382 37.0682927,42.3844394 C36.7573171,42.5697941 36.3530488,42.6521739 35.8762195,42.6521739 C33.7304878,42.6521739 30.5481707,40.9530892 27.1689024,37.8535469 C28.620122,36.3398169 30.0713415,34.6201373 31.45,32.715103 C33.7926829,32.4679634 36.0109756,32.0869565 38.0426829,31.5823799 C38.2810976,32.6224256 38.4676829,33.6212815 38.5817073,34.5789474 Z M42.572561,27.7105263 C41.6810976,28.0915332 40.7067073,28.4313501 39.7012195,28.7505721 C39.1103659,26.7322654 38.3329268,24.6315789 37.3689024,22.479405 C38.322561,20.3375286 39.0896341,18.2471396 39.670122,16.2391304 C40.6963415,16.5583524 41.6707317,16.9084668 42.5829268,17.2894737 C46.252439,18.8443936 48.6262195,20.8832952 48.6262195,22.5 C48.6158537,24.1167048 46.2420732,26.1659039 42.572561,27.7105263 Z" id="Shape"></path>
            <ellipse id="Oval" cx="25.4896341" cy="22.5" rx="4.73719512" ry="4.70594966"></ellipse>
        </g>
    </g>
</svg>