<?xml version="1.0" encoding="UTF-8"?>
<svg width="60px" height="37px" viewBox="0 0 60 37" version="1.1" xmlns="http://www.w3.org/2000/svg" xmlns:xlink="http://www.w3.org/1999/xlink">
    <!-- Generator: Sketch 54.1 (76490) - https://sketchapp.com -->
    <title>icon-nodejs</title>
    <desc>Created with Sketch.</desc>
    <defs>
        <path d="M6.09887133,0.216242515 L0.392776524,3.49248503 C0.179051919,3.61508982 0.0479458239,3.84143713 0.0479458239,4.08610778 L0.0479458239,10.6431737 C0.0479458239,10.887979 0.179051919,11.1141916 0.392776524,11.2367964 L6.09927765,14.5155988 C6.31259594,14.6377994 6.57562077,14.6377994 6.78866817,14.5155988 L12.4942212,11.2367964 C12.7068623,11.1141916 12.8382393,10.8878443 12.8382393,10.6431737 L12.8382393,4.08610778 C12.8382393,3.84143713 12.7068623,3.61508982 12.4928668,3.49248503 L6.78812641,0.216242515 C6.68112867,0.155209581 6.56194131,0.124625749 6.44275395,0.124625749 C6.32356659,0.124625749 6.20437923,0.155209581 6.09738149,0.216242515" id="path-1"></path>
        <linearGradient x1="66.5884084%" y1="15.9039155%" x2="33.3749707%" y2="83.9895613%" id="linearGradient-3">
            <stop stop-color="#3E863D" offset="30%"></stop>
            <stop stop-color="#55934F" offset="50%"></stop>
            <stop stop-color="#5AAD45" offset="80%"></stop>
        </linearGradient>
        <path d="M0.0539051919,10.9247605 C0.108487585,10.9952246 0.176749436,11.0562575 0.257065463,11.1020659 L5.15187359,13.9145659 L5.96722348,14.3807335 C6.08911964,14.4507934 6.22808126,14.4804341 6.36460497,14.4703293 C6.41011287,14.4666916 6.45562077,14.4582036 6.50004515,14.4456737 L12.5181941,3.48399701 C12.4721445,3.43414671 12.4182393,3.39238024 12.357833,3.3573503 L8.62158014,1.21109281 L6.64659142,0.0807035928 C6.59051919,0.0483682635 6.52970655,0.0254640719 6.46781038,0.00929640719 L0.0539051919,10.9247605 Z" id="path-4"></path>
        <linearGradient x1="21.7863929%" y1="71.2183179%" x2="78.7318794%" y2="29.4386235%" id="linearGradient-6">
            <stop stop-color="#3E863D" offset="57%"></stop>
            <stop stop-color="#619857" offset="72%"></stop>
            <stop stop-color="#76AC64" offset="100%"></stop>
        </linearGradient>
        <path d="M5.968307,0.128398204 C5.87255079,0.137829341 5.77896163,0.16747006 5.69268623,0.216242515 L0.00284424379,3.48305389 L6.13828442,14.5996707 C6.22361174,14.5875449 6.30758465,14.5592515 6.38343115,14.5155988 L12.089526,11.2367964 C12.2655982,11.1352096 12.38614,10.9632934 12.4227088,10.7684731 L6.16808126,0.139580838 C6.1220316,0.130553892 6.07598194,0.125838323 6.02857788,0.125838323 C6.00961625,0.125838323 5.99065463,0.126781437 5.971693,0.128532934" id="path-7"></path>
        <linearGradient x1="0.0337368978%" y1="50.0027925%" x2="100.0189%" y2="50.0027925%" id="linearGradient-9">
            <stop stop-color="#6BBF47" offset="16%"></stop>
            <stop stop-color="#79B461" offset="38%"></stop>
            <stop stop-color="#75AC64" offset="47%"></stop>
            <stop stop-color="#659E5A" offset="70%"></stop>
            <stop stop-color="#3E863D" offset="90%"></stop>
        </linearGradient>
    </defs>
    <g id="Page-1" stroke="none" stroke-width="1" fill="none" fill-rule="evenodd">
        <g id="icon-nodejs">
            <path d="M29.6135892,36.5025449 C29.4158465,36.5025449 29.2194582,36.4509431 29.0460948,36.3516467 L27.2397291,35.2878144 C26.9699323,35.1377246 27.1015801,35.0846407 27.1905643,35.0540569 C27.5502935,34.9287575 27.6232957,34.9004641 28.0072686,34.6835479 C28.0476298,34.6606437 28.1004515,34.6687275 28.1417607,34.692979 L29.5294808,35.5121407 C29.5795937,35.5390868 29.6506998,35.5390868 29.6971558,35.5121407 L35.107991,32.4052545 C35.1581038,32.3769611 35.1906095,32.3190269 35.1906095,32.2597455 L35.1906095,26.0486677 C35.1906095,25.9866916 35.1581038,25.9314521 35.1069074,25.9004641 L29.6982393,22.7962725 C29.6481264,22.7666317 29.5817607,22.7666317 29.5316479,22.7962725 L24.1240632,25.9004641 C24.0716479,25.9301048 24.0383296,25.9880389 24.0383296,26.0473204 L24.0383296,32.2583982 C24.0383296,32.3176796 24.0708352,32.3742665 24.1223025,32.4025599 L25.6040181,33.2540569 C26.4085327,33.6542066 26.9001806,33.1826497 26.9001806,32.7083982 L26.9001806,26.5781587 C26.9001806,26.4905838 26.9692551,26.4232186 27.0572912,26.4232186 L27.7426185,26.4232186 C27.8279458,26.4232186 27.8983747,26.4905838 27.8983747,26.5781587 L27.8983747,32.7110928 C27.8983747,33.7781587 27.3132731,34.3911826 26.2961174,34.3911826 C25.9832506,34.3911826 25.7367494,34.3911826 25.0487133,34.0543563 L23.6293002,33.2405838 C23.2785102,33.038488 23.0618059,32.6612425 23.0618059,32.2583982 L23.0618059,26.0473204 C23.0618059,25.6431287 23.2785102,25.2658832 23.6293002,25.066482 L29.045553,21.9582485 C29.3882167,21.7655838 29.8432957,21.7655838 30.1832506,21.9582485 L35.5927314,25.0678293 C35.942167,25.2685778 36.1602257,25.644476 36.1602257,26.0486677 L36.1602257,32.2597455 C36.1602257,32.6625898 35.942167,33.038488 35.5927314,33.2405838 L30.1832506,36.3488174 C30.0098871,36.448518 29.8134989,36.4997156 29.6130474,36.4997156" id="Path" fill="#689F63" fill-rule="nonzero"></path>
            <path d="M31.284921,32.2226946 C28.9174266,32.2226946 28.4210384,31.1416168 28.4210384,30.2348802 C28.4210384,30.1486527 28.4909255,30.0799401 28.5777427,30.0799401 L29.276614,30.0799401 C29.3538149,30.0799401 29.4188262,30.1358533 29.4310158,30.2117066 C29.5366591,30.9201198 29.8508804,31.2774251 31.2824831,31.2774251 C32.4228894,31.2774251 32.9077652,31.0211677 32.9077652,30.4195958 C32.9077652,30.0733383 32.7696163,29.816003 30.9980587,29.6435479 C29.5163431,29.4980389 28.6007675,29.1733383 28.6007675,27.9944461 C28.6007675,26.908518 29.5217607,26.2618114 31.0644244,26.2618114 C32.7967043,26.2618114 33.655395,26.860015 33.7637472,28.1453443 C33.7678104,28.1898054 33.7515576,28.2329192 33.7217607,28.2652545 C33.6919639,28.2962425 33.6499774,28.3151048 33.6066366,28.3151048 L32.903702,28.3151048 C32.8305643,28.3151048 32.7669074,28.2639072 32.752009,28.1938473 C32.5827088,27.4487874 32.1736795,27.2103144 31.0617156,27.2103144 C29.8170203,27.2103144 29.6720993,27.6414521 29.6720993,27.9648054 C29.6720993,28.3568713 29.842754,28.4713922 31.5222122,28.6923503 C33.1854176,28.9119611 33.9750339,29.2218413 33.9750339,30.3845659 C33.9750339,31.5567216 32.9917381,32.2290269 31.2770655,32.2290269 L31.284921,32.2226946 Z M37.8675847,25.6420509 L38.0490745,25.6420509 C38.1980587,25.6420509 38.2265011,25.5383084 38.2265011,25.4776796 C38.2265011,25.3186976 38.1167946,25.3186976 38.0558465,25.3186976 L37.8689391,25.3186976 L37.8675847,25.6420509 Z M37.6468172,25.1327695 L38.0490745,25.1327695 C38.1872235,25.1327695 38.4581038,25.1327695 38.4581038,25.4399551 C38.4581038,25.6541766 38.3199549,25.6986377 38.2373363,25.7255838 C38.3985102,25.7363623 38.4093454,25.8414521 38.4310158,25.9896557 C38.441851,26.0826198 38.4594582,26.2429491 38.4919639,26.2968413 L38.2441084,26.2968413 C38.2373363,26.2429491 38.1994131,25.9465419 38.1994131,25.9303743 C38.1831603,25.8643563 38.1601354,25.832021 38.0775169,25.832021 L37.8730023,25.832021 L37.8730023,26.2981886 L37.6468172,26.2981886 L37.6468172,25.1327695 Z M37.1632957,25.7121108 C37.1632957,26.1944461 37.5547178,26.5851647 38.0355305,26.5851647 C38.5204063,26.5851647 38.9118284,26.1863623 38.9118284,25.7121108 C38.9118284,25.2284281 38.5149887,24.8444461 38.0341761,24.8444461 C37.5601354,24.8444461 37.1619413,25.2230389 37.1619413,25.7107635 L37.1632957,25.7121108 Z M39.0797743,25.7148054 C39.0797743,26.2860629 38.6097968,26.7522305 38.0368849,26.7522305 C37.4680361,26.7522305 36.9939955,26.2914521 36.9939955,25.7148054 C36.9939955,25.1273802 37.4788713,24.6773802 38.0368849,24.6773802 C38.5989616,24.6773802 39.0784199,25.1287275 39.0784199,25.7148054 L39.0797743,25.7148054 Z" id="Shape" fill="#689F63" fill-rule="nonzero"></path>
            <path d="M12.858149,12.1998503 C12.858149,11.9519461 12.726772,11.7242515 12.511693,11.6009731 L6.77498871,8.31758982 C6.67814898,8.26100299 6.5696614,8.23136228 6.45968397,8.22732036 L6.40036117,8.22732036 C6.29038375,8.23136228 6.18189616,8.26100299 6.08343115,8.31758982 L0.346997743,11.6009731 C0.133273138,11.7249251 0,11.9526198 0,12.200524 L0.0125959368,21.0442365 C0.0125959368,21.1668413 0.0762528217,21.2813623 0.184604966,21.341991 C0.290248307,21.4066617 0.422979684,21.4066617 0.528623025,21.341991 L3.93900677,19.3991766 C4.15435666,19.2717216 4.28573363,19.0464521 4.28573363,18.8009731 L4.28573363,14.6694611 C4.28573363,14.4229042 4.41711061,14.1952096 4.6317833,14.0726048 L6.08370203,13.2407784 C6.19151242,13.1788024 6.30988713,13.1480838 6.43042889,13.1480838 C6.54907449,13.1480838 6.67015801,13.1785329 6.77498871,13.2406437 L8.22623025,14.0722006 C8.44103837,14.1948054 8.57295711,14.4225 8.57295711,14.6690569 L8.57295711,18.8002994 C8.57295711,19.045509 8.70609481,19.2718563 8.92036117,19.398503 L12.3285779,21.3399701 C12.4355756,21.4032934 12.5687133,21.4032934 12.6753047,21.3399701 C12.7804063,21.2793413 12.8470429,21.1648204 12.8470429,21.0422156 L12.858149,12.1998503 Z M39.928307,16.8044012 C39.928307,16.8659731 39.895395,16.9229641 39.8416253,16.9534132 L37.8712415,18.0832635 C37.8177427,18.1138473 37.7516479,18.1138473 37.6982844,18.0832635 L35.7276298,16.9534132 C35.6734537,16.9228293 35.6409481,16.8658383 35.6409481,16.8044012 L35.6409481,14.5414671 C35.6409481,14.4797605 35.6734537,14.4229042 35.7262754,14.3919162 L37.6955756,13.2601796 C37.7497517,13.2291916 37.8161174,13.2291916 37.8702935,13.2601796 L39.8409481,14.3919162 C39.8951242,14.4229042 39.9276298,14.4797605 39.9276298,14.5414671 L39.928307,16.8044012 Z M40.4605869,0.0436526946 C40.3530474,-0.0158982036 40.2222122,-0.0142814371 40.1160271,0.0472904192 C40.0103837,0.109266467 39.9451016,0.22244012 39.9451016,0.34504491 L39.9451016,9.10252994 C39.9451016,9.18875749 39.8990519,9.2682485 39.8240181,9.31136228 C39.749526,9.35447605 39.6567494,9.35447605 39.5815801,9.31136228 L38.1445598,8.48802395 C37.9305643,8.36488024 37.6669977,8.36488024 37.4521896,8.48802395 L31.7135892,11.7825898 C31.4991874,11.9051946 31.3668623,12.1328892 31.3668623,12.3780988 L31.3668623,18.9691168 C31.3668623,19.2156737 31.4991874,19.442021 31.7135892,19.5659731 L37.4521896,22.8628293 C37.666456,22.9854341 37.9302935,22.9854341 38.145237,22.8628293 L43.8838375,19.5646257 C44.097833,19.4406737 44.2305643,19.2143263 44.2305643,18.9677695 L44.2305643,2.54142216 C44.2305643,2.29136228 44.0937698,2.06137725 43.8743567,1.93917665 L40.4605869,0.0436526946 Z M59.5702483,14.4819162 C59.7834312,14.3587725 59.9146727,14.1313473 59.9146727,13.8861377 L59.9146727,12.2887725 C59.9146727,12.043024 59.7832957,11.8162725 59.5697065,11.6925898 L53.8676749,8.39977545 C53.6523251,8.27582335 53.3882167,8.27582335 53.1728668,8.39977545 L47.4356208,11.6939371 C47.2202709,11.8178892 47.0888939,12.0442365 47.0888939,12.2907934 L47.0888939,18.8791168 C47.0888939,19.127021 47.2229797,19.3560629 47.4383296,19.4786677 L53.1390068,22.7108533 C53.3489391,22.8307635 53.6062754,22.8321108 53.8189165,22.7148952 L57.2672235,20.8084581 C57.3755756,20.7478293 57.4446501,20.6333084 57.4446501,20.5093563 C57.4446501,20.3854042 57.3782844,20.2695359 57.2699323,20.2089072 L51.4974718,16.9133982 C51.3891196,16.8527695 51.322754,16.7382485 51.322754,16.6156437 L51.322754,14.5488772 C51.322754,14.4254641 51.3877652,14.3117515 51.4961174,14.2503144 L53.2920542,13.2196257 C53.3990519,13.1576497 53.5304289,13.1576497 53.6374266,13.2196257 L55.4347178,14.2503144 C55.5417156,14.3109431 55.6080813,14.4254641 55.6080813,14.5480689 L55.6080813,16.1729192 C55.6080813,16.295524 55.674447,16.4100449 55.7814447,16.472021 C55.8884424,16.5326497 56.0211738,16.5326497 56.1281716,16.4706737 L59.5702483,14.4819162 Z" id="Shape" fill="#333333"></path>
            <path d="M53.436298,14.1736527 C53.47693,14.1498054 53.5278555,14.1498054 53.5690293,14.1736527 L54.670158,14.8055389 C54.7113318,14.8292515 54.7365237,14.8729042 54.7365237,14.9200599 L54.7365237,16.1851796 C54.7365237,16.2323353 54.7113318,16.275988 54.670158,16.2997006 L53.5690293,16.9315868 C53.5278555,16.9554341 53.47693,16.9554341 53.436298,16.9315868 L52.3358465,16.2997006 C52.29386,16.275988 52.2681264,16.2323353 52.2681264,16.1851796 L52.2681264,14.9200599 C52.2681264,14.8729042 52.2925056,14.8292515 52.3344921,14.8055389 L53.436298,14.1736527 Z" id="Path" fill="#689F63"></path>
            <g id="Clipped" transform="translate(26.275395, 30.314371)">
                <mask id="mask-2" fill="white">
                    <use xlink:href="#path-1"></use>
                </mask>
                <g id="Path"></g>
                <g id="Group" mask="url(#mask-2)" fill="url(#linearGradient-3)" fill-rule="nonzero">
                    <g transform="translate(-16.429707, -27.082994)" id="Path">
                        <polygon points="24.4283973 7.92121257 8.34961625 0.081242515 0.10537246 16.8112725 16.1837472 24.6516467"></polygon>
                    </g>
                </g>
            </g>
            <g id="Clipped" transform="translate(26.410835, 30.449102)">
                <mask id="mask-5" fill="white">
                    <use xlink:href="#path-4"></use>
                </mask>
                <g id="Path"></g>
                <g id="Group" mask="url(#mask-5)" fill="url(#linearGradient-6)" fill-rule="nonzero">
                    <g transform="translate(-17.513228, -28.026108)" id="Path">
                        <polygon points="0.00948081264 11.0484431 11.362754 26.3340269 26.3776524 15.2987874 15.023702 0.0136077844"></polygon>
                    </g>
                </g>
            </g>
            <g id="Clipped" transform="translate(26.681716, 30.314371)">
                <mask id="mask-8" fill="white">
                    <use xlink:href="#path-7"></use>
                </mask>
                <g id="Path"></g>
                <g id="Group" mask="url(#mask-8)" fill="url(#linearGradient-9)" fill-rule="nonzero">
                    <g transform="translate(-10.605779, -22.097964)" id="Path">
                        <polygon points="0.00270880361 0.125838323 0.00270880361 14.5999401 12.4202709 14.5999401 12.4202709 0.125838323"></polygon>
                    </g>
                </g>
            </g>
        </g>
    </g>
</svg>