<?xml version="1.0" encoding="UTF-8" standalone="no"?>
<svg width="864px" height="226px" viewBox="0 0 864 226" version="1.1" xmlns="http://www.w3.org/2000/svg" xmlns:xlink="http://www.w3.org/1999/xlink">
    <!-- Generator: Sketch 3.7.1 (28215) - http://www.bohemiancoding.com/sketch -->
    <title>lake</title>
    <desc>Created with Sketch.</desc>
    <defs>
        <linearGradient x1="29.7961532%" y1="122.664931%" x2="30.6304455%" y2="0%" id="linearGradient-1">
            <stop stop-color="#CB5251" offset="0%"></stop>
            <stop stop-color="#FF8A48" offset="100%"></stop>
        </linearGradient>
        <linearGradient x1="65.4318869%" y1="116.887153%" x2="39.4496413%" y2="7.109375%" id="linearGradient-2">
            <stop stop-color="#0F7CC3" stop-opacity="0.5" offset="0%"></stop>
            <stop stop-color="#6AADE0" offset="100%"></stop>
        </linearGradient>
        <path d="M715.747754,22 L688.486667,22 C685.170212,22 682.482759,24.6862915 682.482759,28 C682.482759,31.3069658 685.1708,34 688.486667,34 L710.568347,34 L824.028438,34 C832.316048,34 839.034483,40.7139073 839.034483,49 C839.034483,57.2842712 832.317962,64 824.028438,64 L666.379518,64 L615.505655,64 C610.796589,64 607,67.8055796 607,72.5 C607,77.1848682 610.808112,81 615.505655,81 L653.79183,81 L744.498311,81 C759.13479,81 771,92.8612362 771,107.5 C771,122.135546 759.127898,134 744.498311,134 L604.912596,134 L563.498617,134 C557.151363,134 552,139.148725 552,145.5 C552,151.852671 557.148106,157 563.498617,157 L626.472182,157 L628.735427,157 L630.99869,157 C649.777087,157 665,172.222376 665,191 C665,209.777681 649.783935,225 630.998672,225 L190.001328,225 C171.222913,225 156,209.78181 156,191 C156,172.222319 171.216065,157 190.001328,157 L229.880135,157 L232.942618,157 L236.005107,157 C242.6286,157 248,151.627417 248,145 C248,138.371126 242.629701,133 236.005101,133 L176.305292,133 L75.9964596,133 C61.6390114,133 50,121.362561 50,107 C50,92.6405965 61.6392015,81 75.9964596,81 L143.521439,81 L199.500063,81 C204.200613,81 208,77.1944204 208,72.5 C208,67.8151318 204.194448,64 199.500063,64 L96.7255008,64 L16.5062002,64 C7.39007756,64 -5.96855898e-13,56.614702 -5.96855898e-13,47.5 C-5.96855898e-13,38.3873016 7.37742144,31 16.5062002,31 L90.3001123,31 L128.008022,31 C131.055834,31 133.517241,28.5375661 133.517241,25.5 C133.517241,22.4686147 131.05068,20 128.008022,20 L95.8981858,20 L54.0013062,20 C48.4777373,20 44,15.5240618 44,10 C44,4.4771525 48.4808853,0 54.0013062,0 L150.516588,0 L675.496839,0 L778.040805,0 C784.112446,0 789.034483,4.923532 789.034483,11 C789.034483,17.0751322 784.103059,22 778.040805,22 L715.747754,22 Z" id="path-3"></path>
    </defs>
    <g id="Page-1" stroke="none" stroke-width="1" fill="none" fill-rule="evenodd">
        <g id="lake">
            <g id="lake-copy-2" transform="translate(12.000000, 1.000000)">
                <g id="Combined-Shape">
                    <use fill="url(#linearGradient-1)" xlink:href="#path-3"></use>
                    <use fill="url(#linearGradient-2)" xlink:href="#path-3"></use>
                </g>
            </g>
        </g>
    </g>
</svg>