<?xml version="1.0" encoding="UTF-8" standalone="no"?>
<svg width="151px" height="159px" viewBox="0 0 151 159" version="1.1" xmlns="http://www.w3.org/2000/svg" xmlns:xlink="http://www.w3.org/1999/xlink" xmlns:sketch="http://www.bohemiancoding.com/sketch/ns">
    <!-- Generator: Sketch 3.4.2 (15857) - http://www.bohemiancoding.com/sketch -->
    <title>logo</title>
    <desc>Created with Sketch.</desc>
    <defs></defs>
    <g id="Page-1" stroke="none" stroke-width="1" fill="none" fill-rule="evenodd" sketch:type="MSPage">
        <g id="logo" sketch:type="MSArtboardGroup">
            <path stroke='#F1F1F1' d="M10.3407315,73.9098137 C10.3407315,73.9098137 12.3738515,119.396334 25.1398093,131.698074 C35.352575,140.910841 53.970973,145.522403 64.5982219,150.427284 C71.0263798,153.394124 72.9913703,154.349421 73.8452769,154.736656 C74.4030777,154.989611 74.7077786,155.06945 74.7077786,155.06945 C74.7077786,155.06945 74.75,155.301557 83.327428,151.427284 C103.128204,143.696141 113.108861,141.37506 124.946385,131.698074 C136.958264,120.485309 138.387763,108.950118 140.022723,77.2727399 C139.613984,73.3897064 10.3407315,73.9098137 10.3407315,73.9098137 Z" id="Path-5-Copy-2" stroke-width="6" sketch:type="MSShapeGroup"></path>
            <path d="M79.9554746,19.288026 L80.8160566,19.5627856 C80.8160566,19.5627856 85.8604477,8.8762089 85.3033875,4.38823745 C85.0074497,3.33172147 76.4678323,0.981711313 74.9999997,1.25 C74.9999997,1.2499378 74.9999997,1.24994104 74.9999997,1.25000948 C73.7734304,1.14257113 64.9568478,3.33172147 64.66091,4.38823745 C64.1038498,8.8762089 69.1482409,19.5627856 69.1482409,19.5627856 L71.0382511,18.8870444 C57.1303688,24.5511719 11.3740463,43.1920308 11.4321396,43.2490228 C3.90909091,50 1.09090909,58.0909091 1.07447165,58.2490247 C-0.363636364,62.0909091 1.90780494,81.9199982 3.57447161,85.6000061 C5.57518184,88.9992898 11.4321394,95.4479421 11.4321394,95.4479421 L11.4321394,85.8948568 C11.4321394,85.8948568 37.4109264,76.7333688 75.0589745,76.0429988 C112.707023,76.7333688 138.68581,85.8948568 138.68581,85.8948568 L138.68581,95.4479421 C138.68581,95.4479421 144.542767,88.9992898 146.543477,85.6000061 C148.210144,81.9199982 150.481585,62.0909091 149.043477,58.2490247 C149.02704,58.0909091 146.208858,50 138.685809,43.2490228 C138.742598,43.193311 94.9390332,25.3792457 79.9554746,19.288026 Z" id="Path-5-Copy-5" stroke-width="2" fill="#F1F1F1" sketch:type="MSShapeGroup"></path>
        </g>
    </g>
</svg>