<?xml version="1.0" encoding="UTF-8"?>
<svg width="100px" height="100px" viewBox="0 0 100 100" version="1.1" xmlns="http://www.w3.org/2000/svg" xmlns:xlink="http://www.w3.org/1999/xlink">
    <!-- Generator: Sketch 54.1 (76490) - https://sketchapp.com -->
    <title>logo</title>
    <desc>Created with Sketch.</desc>
    <g id="logo" stroke="none" stroke-width="1" fill="none" fill-rule="evenodd">
        <g id="nut" transform="translate(13.000000, 5.000000)">
            <g transform="translate(5.605445, 31.054562)" id="Combined-Shape" stroke="#000000" stroke-width="2.0999999">
                <path d="M29.8782219,48.7606004 C28.9138809,48.6904845 26.1556618,47.0987457 23.5538896,45.7803698 C15.8174415,41.8601391 8.02699977,37.8994767 6.55548164,36.2726558 C3.5605859,32.9616811 -0.231893869,23.9902973 0.0111103281,12.648732 C0.173038501,5.09117147 10.4300459,0.883757429 30.7821325,0.0264899207 C50.988639,0.877071446 61.1725998,5.08768851 61.3346026,12.648732 C61.5776068,23.9902973 57.785127,32.9616811 54.7902313,36.2726558 C53.3187131,37.8994767 44.9436894,41.9394197 37.2072412,45.8596504 C34.4466591,47.2584989 32.3225251,48.0917554 30.0400921,48.7785455 C29.983706,48.7955123 29.9297492,48.7895306 29.8782219,48.7606004 Z"></path>
            </g>
            <g id="face" transform="translate(14.113272, 46.020424)"></g>
            <g id="husk" fill="#000000">
                <path d="M66.7374944,49.2695596 C66.9059376,47.4935312 66.9813868,45.6327097 66.9400471,43.703294 C66.7780443,36.1422505 56.5940836,31.9316334 36.3881649,31.0714428 L36.3238151,44.8642687 L36.3867871,31.0740094 C16.0353017,31.9324889 5.77855769,36.1422505 5.61655489,43.703294 C5.57570255,45.6099667 5.64890196,47.4496528 5.8131899,49.2067195 C5.74396035,49.2036317 5.6747119,49.2005346 5.60544456,49.197428 C4.05130721,49.0416521 3.00575708,47.4403976 2.46879419,44.3936645 C1.66334986,39.8235648 -1.49659643,25.679304 1.72723169,23.1388768 C4.95105982,20.5984496 13.0643606,13.6991032 32.1677981,10.7288207 C47.6163333,12.5155895 54.7384036,13.5495653 68.1110208,20.0458079 C71.0707083,26.0299024 70.615071,42.7638752 70.6248684,44.3928431 C70.6346659,46.021811 97.1123489,47.5705074 68.7202968,49.1626125 C68.0619158,49.1995316 67.4009816,49.2351807 66.7374944,49.2695596 Z" id="Combined-Shape"></path>
            </g>
        </g>
    </g>
</svg>