<?xml version="1.0" encoding="UTF-8" standalone="no"?>
<svg width="864px" height="580px" viewBox="0 0 864 580" version="1.1" xmlns="http://www.w3.org/2000/svg" xmlns:xlink="http://www.w3.org/1999/xlink">
    <!-- Generator: Sketch 3.6.1 (26313) - http://www.bohemiancoding.com/sketch -->
    <title>mountain-final</title>
    <desc>Created with Sketch.</desc>
    <defs>
        <linearGradient x1="29.7961532%" y1="122.664931%" x2="30.6304455%" y2="0%" id="linearGradient-1">
            <stop stop-color="#CB5251" offset="0%"></stop>
            <stop stop-color="#FF8A48" offset="100%"></stop>
        </linearGradient>
        <linearGradient x1="65.4318869%" y1="116.887153%" x2="39.4496413%" y2="7.109375%" id="linearGradient-2">
            <stop stop-color="#0F7CC3" stop-opacity="0.5" offset="0%"></stop>
            <stop stop-color="#6AADE0" offset="100%"></stop>
        </linearGradient>
        <path d="M715.747754,22 L688.486667,22 C685.170212,22 682.482759,24.6862915 682.482759,28 C682.482759,31.3069658 685.1708,34 688.486667,34 L710.568347,34 L824.028438,34 C832.316048,34 839.034483,40.7139073 839.034483,49 C839.034483,57.2842712 832.317962,64 824.028438,64 L666.379518,64 L615.505655,64 C610.796589,64 607,67.8055796 607,72.5 C607,77.1848682 610.808112,81 615.505655,81 L653.79183,81 L744.498311,81 C759.13479,81 771,92.8612362 771,107.5 C771,122.135546 759.127898,134 744.498311,134 L604.912596,134 L563.498617,134 C557.151363,134 552,139.148725 552,145.5 C552,151.852671 557.148106,157 563.498617,157 L626.472182,157 L628.735427,157 L630.99869,157 C649.777087,157 665,172.222376 665,191 C665,209.777681 649.783935,225 630.998672,225 L190.001328,225 C171.222913,225 156,209.78181 156,191 C156,172.222319 171.216065,157 190.001328,157 L229.880135,157 L232.942618,157 L236.005107,157 C242.6286,157 248,151.627417 248,145 C248,138.371126 242.629701,133 236.005101,133 L176.305292,133 L75.9964596,133 C61.6390114,133 50,121.362561 50,107 C50,92.6405965 61.6392015,81 75.9964596,81 L143.521439,81 L199.500063,81 C204.200613,81 208,77.1944204 208,72.5 C208,67.8151318 204.194448,64 199.500063,64 L96.7255008,64 L16.5062002,64 C7.39007756,64 -5.96855898e-13,56.614702 -5.96855898e-13,47.5 C-5.96855898e-13,38.3873016 7.37742144,31 16.5062002,31 L90.3001123,31 L128.008022,31 C131.055834,31 133.517241,28.5375661 133.517241,25.5 C133.517241,22.4686147 131.05068,20 128.008022,20 L95.8981858,20 L54.0013062,20 C48.4777373,20 44,15.5240618 44,10 C44,4.4771525 48.4808853,0 54.0013062,0 L150.516588,0 L675.496839,0 L778.040805,0 C784.112446,0 789.034483,4.923532 789.034483,11 C789.034483,17.0751322 784.103059,22 778.040805,22 L715.747754,22 Z" id="path-3"></path>
        <linearGradient x1="67.6524594%" y1="154.849098%" x2="30.3809767%" y2="-10.4930975%" id="linearGradient-4">
            <stop stop-color="#CB5251" offset="0%"></stop>
            <stop stop-color="#FF8A48" offset="100%"></stop>
        </linearGradient>
        <linearGradient x1="26.461663%" y1="45.1588043%" x2="28.0105547%" y2="47.7750763%" id="linearGradient-5">
            <stop stop-color="#F8F3BB" stop-opacity="0.668902853" offset="0%"></stop>
            <stop stop-color="#ED774C" stop-opacity="0" offset="100%"></stop>
        </linearGradient>
        <path id="path-6" d="M1,245.412293 C1,245.412293 5.65212837,248.267487 61.9982262,184.386726 C118.344324,120.505964 149.525574,82.34375 149.525574,82.34375 L225.611511,1 L249.818542,12.1289062 L309.927917,75.4414062 C309.927917,75.4414062 383.178823,153.856201 413.330261,184.386719 C443.481699,214.917236 473.766357,245.412296 473.766357,245.412296 L1,245.412293 Z"></path>
        <path id="path-7" d="M282.482321,46.8268286 L362.021756,95.2081431 L298.083808,27.4135507 L279.367589,15.0120232 L282.482321,46.8268286 Z"></path>
        <path id="path-8" d="M227.828596,48.3720046 L257.607116,34.2932426 L263.143009,13.6360891 L242.742965,6.55954766 L227.828596,48.3720046 Z"></path>
        <path id="path-9" d="M262.994367,13.4593262 L257.143114,34.351494 L270.878906,52.9550766 L307.314455,86.4121079 L307.314455,65.4570297 L362.328127,96.2753891 L310.472658,52.9550766 L293.414064,36.5703129 L279.630165,15.0019841 L262.994367,13.4593262 Z"></path>
        <path id="path-10" d="M307.197266,85.0644531 L307.197266,64.1733799 L361.65625,94.4980469 L474.980667,210.697397 L317.045573,211.729181 L326.386719,157.5 L321.935547,109.576172 L307.197266,85.0644531 Z"></path>
        <path id="path-11" d="M228.054688,47.9707031 L247.960938,98.6796875 L263.476562,76.3007812 L271.75,51.8808594 L257.337891,34.4335938 L228.054688,47.9707031 Z"></path>
        <path id="path-12" d="M271.691189,51.8807076 L263.603348,76.0814694 L247.811659,97.9791459 L261.388672,157.021484 L262.21394,210.707032 L317.482618,211.663316 L328.03125,155.605469 L322.390625,108.591797 L306.130859,83.671875 L271.691189,51.8807076 Z"></path>
        <linearGradient x1="105.212743%" y1="55.683836%" x2="15.1083005%" y2="33.311187%" id="linearGradient-13">
            <stop stop-color="#FFFFFF" stop-opacity="0" offset="0%"></stop>
            <stop stop-color="#FFF9A8" offset="100%"></stop>
        </linearGradient>
        <path id="path-14" d="M322.490234,108.095703 L369.087891,135.140625 L395.958984,165.027344 L429.930656,211.35376 L360.235886,211.35376 L327.858327,154.610664 L322.490234,108.095703 Z"></path>
        <path id="path-15" d="M199.78109,8.64651299 L227.851562,47.515625 L226.09375,17.9707031 L215.972184,0.0173530877 L199.78109,8.64651299 Z"></path>
        <path id="path-16" d="M164.269733,97.8721695 L199.442383,58.7724686 L199.442383,8.83984375 L178.942383,15.7294922 C178.942383,15.7294922 167.951793,25.714427 148.375977,48.0527344 C128.80016,70.3910417 59.1621094,153.435547 59.1621094,153.435547 L107.509766,115.171875 L150.740234,72.7089844 L164.269733,97.8721695 Z"></path>
        <path id="path-17" d="M199.232998,6.68202209 L198.421875,56.4765625 L182.212239,117.239586 L193.018229,153.817703 L248.457031,96.21875 L227.814453,46.3769531 L199.232998,6.68202209 Z"></path>
        <path id="path-18" d="M262.503963,159.705257 L248.258789,96.6240234 L192.628906,153.295898 L152.142578,198.68457 L99.5025434,210.148918 L260.949214,210.148918 L262.503963,159.705257 Z"></path>
        <path id="path-19" d="M149.374298,72.5639105 L93.7938156,112.560077 L37.6743774,175.389135 L2.43554688,209.609375 L67.7246094,210.373047 L138.875,125.699219 L149.374298,72.5639105 Z"></path>
        <path id="path-20" d="M149.19179,72.7006187 L138.596354,125.445312 L105.607073,164.96516 L68.3265633,211.189892 L114.690104,209.802083 L152.39974,199.44401 L167.393229,126.089844 L165.846354,96.2890625 L149.19179,72.7006187 Z"></path>
        <path id="path-21" d="M166.598958,127.28125 L152.199219,199.19401 L192.904948,153.942708 L182.065104,116.496094 L166.598958,127.28125 Z"></path>
        <linearGradient x1="78.6149911%" y1="67.6819202%" x2="-19.264214%" y2="13.7430209%" id="linearGradient-22">
            <stop stop-color="#FFFFFF" stop-opacity="0" offset="0%"></stop>
            <stop stop-color="#FFF9A8" offset="100%"></stop>
        </linearGradient>
        <path id="path-23" d="M166.824219,127.510417 L165.449219,96.0507812 L198.541667,57.3138021 L182.520833,117.003906 L166.824219,127.510417 Z"></path>
        <path id="path-24" d="M198.665594,57.992963 L247.663275,97.0466978 L192.372104,154.281842 L181.809534,117.241028 L198.665594,57.992963 Z"></path>
        <path id="path-25" d="M179.866067,15.6745815 L198.611713,57.943985 L165.114234,96.2249832 L149.176034,72.8789692 L179.866067,15.6745815 Z"></path>
        <path id="path-26" d="M192.264699,154.385241 L152.084634,199.180988 L262.570312,210.881439 L262.570312,158.359375 L221.795974,124.144435 L192.264699,154.385241 Z"></path>
        <path id="path-27" d="M307.158854,65.2522793 L293.098958,36.0117188 L311.35612,53.4440098 L361.565755,94.4928385 L307.158854,65.2522793 Z"></path>
        <path id="path-28" d="M59.7382812,136.134766 L95.1995239,112.349088 L106.701172,136.134766 L106.701172,165.40281 L69.2558594,211.150391 L0.7578125,211.150391 L34.4335938,170.673828 L59.7382812,136.134766 Z"></path>
        <path id="path-29" d="M60.2085346,135.814855 L106.817765,164.831994 L107.603028,136.978367 L95.3883442,111.876904 L60.2085346,135.814855 Z"></path>
        <path id="path-30" d="M370.207031,136.945312 L414.617188,147.363281 L384.50919,118.615606 L370.207031,136.945312 Z"></path>
        <path id="path-31" d="M414.56478,147.206075 L499.251511,211.511624 L359.304444,211.511624 L377.421847,166.908578 L370.857563,135.97704 L414.56478,147.206075 Z"></path>
        <path id="path-32" d="M286.515126,107.271524 L329.951764,159.347494 L322.718411,107.271524 L308.165624,83.6072688 L271.786741,51.7829407 L269.566115,56.9708767 L286.515126,107.271524 Z"></path>
        <path id="path-33" d="M287.798505,107.467161 L262.626171,158.565296 L248.551107,95.4185287 L271.715643,51.7378328 L287.798505,107.467161 Z"></path>
        <path id="path-34" d="M221.237305,210.050781 L263.093948,157.168518 L300.582031,186.324219 L307.963005,211.386414 L221.237305,210.050781 Z"></path>
        <path id="path-35" d="M138.538293,124.93608 L152.949112,199.453021 L167.359931,127.712291 L165.524617,96.3701029 L149.324968,73.1593962 L138.538293,124.93608 Z"></path>
        <path id="path-36" d="M300.988281,186.964844 L329.339844,156.179688 L377.059296,164.969163 L416.177696,211.364147 L307.965919,211.364147 L300.988281,186.964844 Z"></path>
        <linearGradient x1="43.7400362%" y1="78.2278068%" x2="10.7154191%" y2="18.7764094%" id="linearGradient-37">
            <stop stop-color="#FFCBCA" offset="0%"></stop>
            <stop stop-color="#FFFFFF" offset="100%"></stop>
            <stop stop-color="#B43B3A" offset="100%"></stop>
        </linearGradient>
        <path id="path-38" d="M76.6760184,44.4755363 L71.0222021,35.1106682 L53.9760767,44.1072311 C53.9760767,44.1072311 42.8250905,48.9435264 38.2597657,50.4170212 C36.3085539,51.0467903 0.559570432,86.2246116 0.559570432,86.2246116 L17.2919923,66.9619163 L81.2495109,0.343424201 L104.999999,11.9553732 C104.999999,11.9553732 149.290039,57.9435659 154.424805,63.3740219 C159.559571,68.8044779 164.043945,74.3994163 164.043945,74.3994163 C164.043945,74.3994163 152.05815,64.4199576 150.59375,63.3740219 C145.276953,59.576542 135.24723,50.4170212 135.24723,50.4170212 L97.2591544,41.5615219 L81.2495123,54 L76.6760184,44.4755363 Z"></path>
        <linearGradient x1="6.16043931%" y1="-2.06940197%" x2="55.8664584%" y2="87.4026775%" id="linearGradient-39">
            <stop stop-color="#FFCBCA" offset="0%"></stop>
            <stop stop-color="#FDCBCA" offset="100%"></stop>
            <stop stop-color="#B43B3A" offset="100%"></stop>
        </linearGradient>
        <linearGradient x1="78.0469291%" y1="158.590929%" x2="13.4846154%" y2="0%" id="linearGradient-40">
            <stop stop-color="#DEDEDE" stop-opacity="0.266757246" offset="0%"></stop>
            <stop stop-color="#000000" stop-opacity="0.234488225" offset="100%"></stop>
        </linearGradient>
        <path id="path-41" d="M105,11.5979524 L152.882811,62.1933577 L164.929686,74.8759787 C164.929686,74.8759787 159.235583,70.4131794 156.661132,68.61426 C151.698309,65.1464457 134.667472,50.5464807 134.667472,50.5464807 L117.684837,49.472342 L97.3150109,41.6785719 L81.4174107,0.106584787 L105,11.5979524 Z"></path>
        <linearGradient x1="112.34345%" y1="72.0221962%" x2="-17.6746023%" y2="72.0221937%" id="linearGradient-42">
            <stop stop-color="#FFCBCA" offset="0%"></stop>
            <stop stop-color="#DFB4B3" offset="100%"></stop>
        </linearGradient>
        <path id="path-43" d="M97.3128052,41.6659546 L81.5292969,53.9326172 L80.0615234,37.1464844 L81.5292969,0.608398438 L97.3128052,41.6659546 Z"></path>
    </defs>
    <g id="Page-1" stroke="none" stroke-width="1" fill="none" fill-rule="evenodd">
        <g id="mountain-final">
            <g id="lake" transform="translate(12.000000, 317.000000)">
                <g id="Combined-Shape">
                    <use fill="url(#linearGradient-1)" xlink:href="#path-3"></use>
                    <use fill="url(#linearGradient-2)" xlink:href="#path-3"></use>
                </g>
            </g>
            <g id="sun" transform="translate(123.000000, 41.000000)" fill="#EA895E">
                <circle id="sun-copy-2" opacity="0.0597014925" cx="87.5" cy="87.5" r="87.5"></circle>
                <circle id="sun-copy" opacity="0.107684235" cx="88" cy="86" r="71"></circle>
                <circle cx="88" cy="86" r="54"></circle>
            </g>
            <g id="mtn" transform="translate(181.000000, 72.000000)">
                <g id="base" opacity="0.831856343">
                    <use fill="url(#linearGradient-4)" xlink:href="#path-6"></use>
                    <use fill="url(#linearGradient-5)" style="mix-blend-mode: soft-light;" xlink:href="#path-6"></use>
                </g>
                <path d="M241.939103,41.3754122 L226.414908,54.1314615 L228.440755,84.7890625 L250.000001,138.552155 L274.078204,246.232895 L472.876181,246.232895 L299.36534,63.96826 L279.411246,50.4522709 L258.841147,48.4422576 L241.939103,41.3754122 Z" id="Path-1220" fill="#E66F4D"></path>
                <g id="mtn-poly" transform="translate(0.000000, 35.000000)">
                    <g id="Path-1224">
                        <use fill="#E66F4D" xlink:href="#path-7"></use>
                        <use fill-opacity="0.322124094" fill="#000000" xlink:href="#path-7"></use>
                    </g>
                    <path d="M227.893248,48.4015234 L242.574236,6.55553032 L226.043756,17.9658277 L227.893248,48.4015234 Z" id="Path-1221" fill="#E66F4D"></path>
                    <g id="Path-1222">
                        <use fill="#E66F4D" xlink:href="#path-8"></use>
                        <use fill-opacity="0.119999997" fill="#000000" xlink:href="#path-8"></use>
                    </g>
                    <g id="Path-1223">
                        <use fill="#E66F4D" xlink:href="#path-9"></use>
                        <use fill-opacity="0.192595109" fill="#000000" xlink:href="#path-9"></use>
                    </g>
                    <g id="Path-1225">
                        <use fill="#E66F4D" xlink:href="#path-10"></use>
                        <use fill-opacity="0.24000001" fill="#000000" xlink:href="#path-10"></use>
                    </g>
                    <g id="Path-1226">
                        <use fill="#E66F4D" xlink:href="#path-11"></use>
                        <use fill-opacity="0.0700000003" fill="#000000" xlink:href="#path-11"></use>
                    </g>
                    <g id="Path-1227">
                        <use fill="#E66F4D" xlink:href="#path-12"></use>
                        <use fill-opacity="0.24000001" fill="#000000" xlink:href="#path-12"></use>
                    </g>
                    <g id="Path-1228">
                        <use fill="#E66F4D" xlink:href="#path-14"></use>
                        <use fill-opacity="0.200000003" fill="#000000" xlink:href="#path-14"></use>
                        <use fill-opacity="0.1" fill="url(#linearGradient-13)" xlink:href="#path-14"></use>
                    </g>
                    <g id="Path-1229">
                        <use fill="#E66F4D" xlink:href="#path-15"></use>
                        <use fill-opacity="0.0716428895" fill="#000000" xlink:href="#path-15"></use>
                    </g>
                    <g id="Path-1230">
                        <use fill="#E66F4D" fill-rule="evenodd" xlink:href="#path-16"></use>
                        <use fill="none" xlink:href="#path-16"></use>
                        <use fill-opacity="0.190000013" fill="#FFF9A8" fill-rule="evenodd" xlink:href="#path-16"></use>
                    </g>
                    <g id="Path-1232">
                        <use fill="#E66F4D" xlink:href="#path-17"></use>
                        <use fill-opacity="0.129999995" fill="#000000" xlink:href="#path-17"></use>
                    </g>
                    <g id="Path-1233">
                        <use fill="#E66F4D" xlink:href="#path-18"></use>
                        <use fill-opacity="0.299999982" fill="#000000" xlink:href="#path-18"></use>
                    </g>
                    <g id="Path-1234" opacity="0.985074627">
                        <use fill="#E66F4D" fill-rule="evenodd" xlink:href="#path-19"></use>
                        <use fill="none" xlink:href="#path-19"></use>
                        <use fill-opacity="0.0599999987" fill="#FFF9A8" fill-rule="evenodd" xlink:href="#path-19"></use>
                    </g>
                    <g id="Path-1235">
                        <use fill="#E66F4D" xlink:href="#path-20"></use>
                        <use fill-opacity="0.189999998" fill="#000000" xlink:href="#path-20"></use>
                    </g>
                    <g id="Path-1236">
                        <use fill="#E66F4D" xlink:href="#path-21"></use>
                        <use fill-opacity="0.219999999" fill="#000000" xlink:href="#path-21"></use>
                    </g>
                    <g id="Path-1237">
                        <use fill="#E66F4D" xlink:href="#path-23"></use>
                        <use fill-opacity="0" fill="#000000" xlink:href="#path-23"></use>
                        <use fill-opacity="0.190000013" fill="url(#linearGradient-22)" xlink:href="#path-23"></use>
                    </g>
                    <g id="Path-1238">
                        <use fill="#E66F4D" xlink:href="#path-24"></use>
                        <use fill-opacity="0.170000002" fill="#000000" xlink:href="#path-24"></use>
                    </g>
                    <g id="Path-1248">
                        <use fill="#E66F4D" xlink:href="#path-25"></use>
                        <use fill-opacity="0.0700000003" fill="#000000" xlink:href="#path-25"></use>
                    </g>
                    <path d="M179.625574,15.3672094 L199.475731,6.78646184 L198.800863,58.1358387 L179.625574,15.3672094 Z" id="Path-1249" fill="#E66F4D"></path>
                    <g id="Path-1250">
                        <use fill="#E66F4D" xlink:href="#path-26"></use>
                        <use fill-opacity="0.0399999991" fill="#000000" xlink:href="#path-26"></use>
                    </g>
                    <g id="Path-1251">
                        <use fill="#E66F4D" xlink:href="#path-27"></use>
                        <use fill-opacity="0.26415308" fill="#000000" xlink:href="#path-27"></use>
                    </g>
                    <g id="Path-1252">
                        <use fill="#E66F4D" xlink:href="#path-28"></use>
                        <use fill-opacity="0.0899999961" fill="#000000" xlink:href="#path-28"></use>
                    </g>
                    <g id="Path-1253">
                        <use fill="#E66F4D" xlink:href="#path-29"></use>
                        <use fill-opacity="0.157863451" fill="#FFF9A8" xlink:href="#path-29"></use>
                    </g>
                    <g id="Path-1254">
                        <use fill="#E66F4D" xlink:href="#path-30"></use>
                        <use fill-opacity="0.150000006" fill="#000000" xlink:href="#path-30"></use>
                    </g>
                    <g id="Path-1255">
                        <use fill="#E66F4D" xlink:href="#path-31"></use>
                        <use fill-opacity="0.252745697" fill="#000000" xlink:href="#path-31"></use>
                    </g>
                    <g id="Path-1256">
                        <use fill="#E66F4D" xlink:href="#path-32"></use>
                        <use fill-opacity="0.280000001" fill="#000000" xlink:href="#path-32"></use>
                    </g>
                    <g id="Path-1257">
                        <use fill="#E66F4D" xlink:href="#path-33"></use>
                        <use fill-opacity="0.100000001" fill="#000000" xlink:href="#path-33"></use>
                    </g>
                    <g id="Path-1258">
                        <use fill="#E66F4D" xlink:href="#path-34"></use>
                        <use fill-opacity="0.32922894" fill="#000000" xlink:href="#path-34"></use>
                    </g>
                    <g id="Path-1258">
                        <use fill="#E66F4D" xlink:href="#path-35"></use>
                        <use fill-opacity="0.050611413" fill="#000000" xlink:href="#path-35"></use>
                    </g>
                    <g id="Path-1259">
                        <use fill="#E66F4D" xlink:href="#path-36"></use>
                        <use fill-opacity="0.124688632" fill="#000000" xlink:href="#path-36"></use>
                    </g>
                </g>
                <g id="snow-tops" transform="translate(134.000000, 0.000000)">
                    <g id="top" transform="translate(11.000000, 0.000000)">
                        <g id="top-copy-2">
                            <use fill="none" xlink:href="#path-38"></use>
                            <use fill="url(#linearGradient-37)" fill-rule="evenodd" xlink:href="#path-38"></use>
                        </g>
                        <g id="top-copy-3">
                            <use fill="none" xlink:href="#path-41"></use>
                            <use fill="url(#linearGradient-39)" fill-rule="evenodd" xlink:href="#path-41"></use>
                            <use fill="url(#linearGradient-40)" fill-rule="evenodd" xlink:href="#path-41"></use>
                        </g>
                        <g id="top-copy-6">
                            <use fill="none" xlink:href="#path-43"></use>
                            <use fill="url(#linearGradient-42)" fill-rule="evenodd" xlink:href="#path-43"></use>
                            <use fill="none" xlink:href="#path-43"></use>
                        </g>
                    </g>
                </g>
            </g>
        </g>
    </g>
</svg>