<?xml version="1.0" encoding="UTF-8" standalone="no"?>
<svg width="864px" height="580px" viewBox="0 0 864 580" version="1.1" xmlns="http://www.w3.org/2000/svg" xmlns:xlink="http://www.w3.org/1999/xlink">
    <!-- Generator: Sketch 3.6.1 (26313) - http://www.bohemiancoding.com/sketch -->
    <title>mountain-scene-2</title>
    <desc>Created with Sketch.</desc>
    <defs>
        <linearGradient x1="29.7961532%" y1="122.664931%" x2="30.6304455%" y2="0%" id="linearGradient-1">
            <stop stop-color="#CB5251" offset="0%"></stop>
            <stop stop-color="#FF8A48" offset="100%"></stop>
        </linearGradient>
        <linearGradient x1="65.4318869%" y1="116.887153%" x2="39.4496413%" y2="7.109375%" id="linearGradient-2">
            <stop stop-color="#0F7CC3" stop-opacity="0.5" offset="0%"></stop>
            <stop stop-color="#6AADE0" offset="100%"></stop>
        </linearGradient>
        <path d="M715.747754,22 L688.486667,22 C685.170212,22 682.482759,24.6862915 682.482759,28 C682.482759,31.3069658 685.1708,34 688.486667,34 L710.568347,34 L824.028438,34 C832.316048,34 839.034483,40.7139073 839.034483,49 C839.034483,57.2842712 832.317962,64 824.028438,64 L666.379518,64 L615.505655,64 C610.796589,64 607,67.8055796 607,72.5 C607,77.1848682 610.808112,81 615.505655,81 L653.79183,81 L744.498311,81 C759.13479,81 771,92.8612362 771,107.5 C771,122.135546 759.127898,134 744.498311,134 L604.912596,134 L563.498617,134 C557.151363,134 552,139.148725 552,145.5 C552,151.852671 557.148106,157 563.498617,157 L626.472182,157 L628.735427,157 L630.99869,157 C649.777087,157 665,172.222376 665,191 C665,209.777681 649.783935,225 630.998672,225 L190.001328,225 C171.222913,225 156,209.78181 156,191 C156,172.222319 171.216065,157 190.001328,157 L229.880135,157 L232.942618,157 L236.005107,157 C242.6286,157 248,151.627417 248,145 C248,138.371126 242.629701,133 236.005101,133 L176.305292,133 L75.9964596,133 C61.6390114,133 50,121.362561 50,107 C50,92.6405965 61.6392015,81 75.9964596,81 L143.521439,81 L199.500063,81 C204.200613,81 208,77.1944204 208,72.5 C208,67.8151318 204.194448,64 199.500063,64 L96.7255008,64 L16.5062002,64 C7.39007756,64 -5.96855898e-13,56.614702 -5.96855898e-13,47.5 C-5.96855898e-13,38.3873016 7.37742144,31 16.5062002,31 L90.3001123,31 L128.008022,31 C131.055834,31 133.517241,28.5375661 133.517241,25.5 C133.517241,22.4686147 131.05068,20 128.008022,20 L95.8981858,20 L54.0013062,20 C48.4777373,20 44,15.5240618 44,10 C44,4.4771525 48.4808853,0 54.0013062,0 L150.516588,0 L675.496839,0 L778.040805,0 C784.112446,0 789.034483,4.923532 789.034483,11 C789.034483,17.0751322 784.103059,22 778.040805,22 L715.747754,22 Z" id="path-3"></path>
        <path d="M715.747754,22 L688.486667,22 C685.170212,22 682.482759,24.6862915 682.482759,28 C682.482759,31.3069658 685.1708,34 688.486667,34 L710.568347,34 L824.028438,34 C832.316048,34 839.034483,40.7139073 839.034483,49 C839.034483,57.2842712 832.317962,64 824.028438,64 L666.379518,64 L615.505655,64 C610.796589,64 607,67.8055796 607,72.5 C607,77.1848682 610.808112,81 615.505655,81 L653.79183,81 L744.498311,81 C759.13479,81 771,92.8612362 771,107.5 C771,122.135546 759.127898,134 744.498311,134 L604.912596,134 L563.498617,134 C557.151363,134 552,139.148725 552,145.5 C552,151.852671 557.148106,157 563.498617,157 L626.472182,157 L628.735427,157 L630.99869,157 C649.777087,157 665,172.222376 665,191 C665,209.777681 649.783935,225 630.998672,225 L190.001328,225 C171.222913,225 156,209.78181 156,191 C156,172.222319 171.216065,157 190.001328,157 L229.880135,157 L232.942618,157 L236.005107,157 C242.6286,157 248,151.627417 248,145 C248,138.371126 242.629701,133 236.005101,133 L176.305292,133 L75.9964596,133 C61.6390114,133 50,121.362561 50,107 C50,92.6405965 61.6392015,81 75.9964596,81 L143.521439,81 L199.500063,81 C204.200613,81 208,77.1944204 208,72.5 C208,67.8151318 204.194448,64 199.500063,64 L96.7255008,64 L16.5062002,64 C7.39007756,64 -5.96855898e-13,56.614702 -5.96855898e-13,47.5 C-5.96855898e-13,38.3873016 7.37742144,31 16.5062002,31 L90.3001123,31 L128.008022,31 C131.055834,31 133.517241,28.5375661 133.517241,25.5 C133.517241,22.4686147 131.05068,20 128.008022,20 L95.8981858,20 L54.0013062,20 C48.4777373,20 44,15.5240618 44,10 C44,4.4771525 48.4808853,0 54.0013062,0 L150.516588,0 L675.496839,0 L778.040805,0 C784.112446,0 789.034483,4.923532 789.034483,11 C789.034483,17.0751322 784.103059,22 778.040805,22 L715.747754,22 Z" id="path-4"></path>
        <linearGradient x1="85.4990584%" y1="91.820147%" x2="6.40301318%" y2="23.0472304%" id="linearGradient-6">
            <stop stop-color="#000000" stop-opacity="0" offset="0%"></stop>
            <stop stop-color="#350A07" stop-opacity="0.173884737" offset="100%"></stop>
        </linearGradient>
        <path id="path-7" d="M344.499647,-11.8741665 L714.217958,305.996094 L844.94142,38.0312519 L796.962233,-1.2109375 L344.499647,-11.8741665 Z"></path>
        <linearGradient x1="0%" y1="-53.1738281%" x2="50%" y2="50%" id="linearGradient-8">
            <stop stop-color="#FFFFFF" offset="0%"></stop>
            <stop stop-color="#447FAC" offset="100%"></stop>
        </linearGradient>
        <linearGradient x1="50%" y1="0%" x2="50%" y2="100%" id="linearGradient-9">
            <stop stop-color="#CB5251" offset="0%"></stop>
            <stop stop-color="#FF8A48" offset="100%"></stop>
        </linearGradient>
        <path id="path-10" d="M0.181463122,247.545105 L232.405844,2.54617625 L472.947821,247.545108 L0.181463122,247.545105 Z"></path>
        <linearGradient x1="33.4212333%" y1="3.68978422%" x2="77.5856895%" y2="59.8054946%" id="linearGradient-11">
            <stop stop-color="#7F2120" offset="0%"></stop>
            <stop stop-color="#FF8A48" offset="100%"></stop>
        </linearGradient>
        <path id="path-12" d="M250.779493,53.9295842 L427.498044,245.498035 L94.9999975,245.49804 L250.779493,53.9295842 Z"></path>
        <linearGradient x1="26.7297424%" y1="39.5356906%" x2="102.872988%" y2="128.242164%" id="linearGradient-13">
            <stop stop-color="#7F2120" offset="0%"></stop>
            <stop stop-color="#FF8A48" offset="100%"></stop>
        </linearGradient>
        <linearGradient x1="2.99488291%" y1="17.1215897%" x2="137.653613%" y2="100%" id="linearGradient-14">
            <stop stop-color="#7F2120" offset="0%"></stop>
            <stop stop-color="#FF8A48" offset="100%"></stop>
        </linearGradient>
        <path d="M232.414064,0.55454901 L232.405844,0.546176255 L0.181463122,245.545105 L472.947821,245.545108 L350.076245,120.39687 L472.542328,245.490677 L183.332031,245.490677 L255.5,151.172531 L237.501953,158.172531 L286.697575,88.2181854 L252.501953,104.471375 L254.892807,96.8269043 L224.001953,108.120056 L249.39843,70.2396927 L242.913473,72.9600906 L250.905792,53.8471527 L224.001953,66.1549479 L232.414064,0.55454901 Z" id="path-15"></path>
        <linearGradient x1="2.99488291%" y1="17.1215897%" x2="140.507786%" y2="71.8314921%" id="linearGradient-16">
            <stop stop-color="#7F2120" offset="0%"></stop>
            <stop stop-color="#FF8A48" offset="100%"></stop>
        </linearGradient>
        <path id="path-17" d="M232.40625,0.562438965 L223.755344,66.5241318 L250.667076,54.0982208 L242.628807,73.0977631 L248.980728,70.6244507 L224.001953,108.120056 L254.834259,96.9789886 L252.501953,104.471375 L286.697575,88.2181854 L237.501953,158.172531 L255.5,151.172531 L183.332031,245.490677 C183.332031,245.490677 315.850525,245.293124 382.742401,245.490677 C412.56549,245.578754 472.973541,245.59346 472.973541,245.59346 L232.40625,0.562438965 Z"></path>
        <linearGradient x1="-173.391493%" y1="121.392969%" x2="113.578562%" y2="-128.633664%" id="linearGradient-18">
            <stop stop-color="#FFFFFF" stop-opacity="0.5" offset="0%"></stop>
            <stop stop-color="#000000" stop-opacity="0.5" offset="100%"></stop>
        </linearGradient>
        <path id="path-19" d="M14.4337552,13.6641337 C13.3912146,11.9328077 10.8756835,12.4929223 10.8756835,12.4929223 L8.30826499,12.9700825 C8.30826499,12.9700825 4.1122172,18.9562746 0.0409950097,23.1639601 C0.0409950097,23.1639601 6.76618354,27.5451585 10.3967225,28.5428571 C14.9477823,27.3282675 21.8014777,24.3351717 21.8014777,24.3351717 C19.6501425,21.9319886 16.1341432,16.4879339 14.4337552,13.6641337 Z"></path>
        <path id="path-20" d="M13.0347277,8.50847149 C11.9921872,6.77714541 10.8756835,5.5524099 10.8756835,5.5524099 C10.8756835,5.5524099 9.66386256,6.72706627 8.76330859,8.26966749 C7.10948914,11.1025726 4.39852576,15.1533867 2.8601187,16.9286613 C2.8601187,16.9286613 7.65422443,19.6459193 10.3967225,21.6023448 C12.7345454,20.4429815 19.1028351,17.9068744 19.1028351,17.9068744 C16.9514999,15.5036913 14.7351158,11.3322717 13.0347277,8.50847149 Z"></path>
        <path id="path-21" d="M10.5830627,-1.50990331e-13 C10.5830627,-1.50990331e-13 9.93601763,4.16430743 5.39728507,11.1749488 C5.39728507,11.1749488 8.26542939,12.7098133 10.5830627,14.0958705 C12.6346602,13.4038645 16.3685386,12.0635225 16.3685386,12.0635225 C11.906455,3.90403821 10.5830627,-1.50990331e-13 10.5830627,-1.50990331e-13 Z"></path>
        <path id="path-22" d="M15.980229,14.7720365 C14.8259876,12.9003326 12.0409353,13.5058619 12.0409353,13.5058619 L9.19843624,14.0217108 C9.19843624,14.0217108 4.5528119,20.4932699 0.0453873322,25.042119 C0.0453873322,25.042119 7.49113178,29.7785497 11.510657,30.8571429 C16.5493304,29.5440729 24.1373503,26.3082938 24.1373503,26.3082938 C21.7555149,23.7102579 17.8628014,17.8247934 15.980229,14.7720365 Z"></path>
        <path id="path-23" d="M14.4313057,9.19834756 C13.2770644,7.32664369 12.0409353,6.0026053 12.0409353,6.0026053 C12.0409353,6.0026053 10.6992764,7.27250408 9.70223451,8.94018108 C7.87122012,12.0027812 4.86979638,16.3820397 3.16655999,18.3012555 C3.16655999,18.3012555 8.47431991,21.2388317 11.510657,23.3538862 C14.098961,22.1005206 21.1495675,19.3587832 21.1495675,19.3587832 C18.767732,16.7607473 16.3138782,12.2511045 14.4313057,9.19834756 Z"></path>
        <path id="path-24" d="M11.7169622,4.52970994e-14 C11.7169622,4.52970994e-14 11.0005909,4.50195397 5.97556561,12.0810257 C5.97556561,12.0810257 9.15101111,13.7403387 11.7169622,15.2387789 C13.9883738,14.4906644 18.1223106,13.0416459 18.1223106,13.0416459 C13.1821466,4.22058185 11.7169622,4.52970994e-14 11.7169622,4.52970994e-14 Z"></path>
        <path id="path-25" d="M24.2280891,22.5273556 C22.4781103,19.6730072 18.2556116,20.5964394 18.2556116,20.5964394 L13.9460162,21.383109 C13.9460162,21.383109 6.9026503,31.2522366 0.0688130521,38.1892314 C0.0688130521,38.1892314 11.3575224,45.4122883 17.4516413,47.0571429 C25.0909203,45.0547112 36.5953375,40.120148 36.5953375,40.120148 C32.9841677,36.1581433 27.0823119,27.18281 24.2280891,22.5273556 Z"></path>
        <path id="path-26" d="M21.8797216,14.02748 C20.1297428,11.1731316 18.2556116,9.15397308 18.2556116,9.15397308 C18.2556116,9.15397308 16.2214836,11.0905687 14.7098394,13.6337761 C11.9337853,18.3042413 7.38323968,24.9826106 4.80091354,27.9094146 C4.80091354,27.9094146 12.8481624,32.3892183 17.4516413,35.6146765 C21.3758441,33.7032939 32.0654732,29.5221443 32.0654732,29.5221443 C28.4543034,25.5601397 24.7339443,18.6829344 21.8797216,14.02748 Z"></path>
        <path id="path-27" d="M17.7644266,-1.20792265e-13 C17.7644266,-1.20792265e-13 16.6783153,6.86547981 9.05972851,18.4235643 C9.05972851,18.4235643 13.8741136,20.9540165 17.7644266,23.2391379 C21.2081796,22.0982631 27.4757612,19.88851 27.4757612,19.88851 C19.9858352,6.43638732 17.7644266,-1.20792265e-13 17.7644266,-1.20792265e-13 Z"></path>
        <linearGradient x1="18.4692183%" y1="14.762816%" x2="101.996673%" y2="83.8397904%" id="linearGradient-28">
            <stop stop-color="#7F2120" offset="0%"></stop>
            <stop stop-color="#FF8A48" offset="100%"></stop>
        </linearGradient>
        <path id="path-29" d="M219.310108,180.039803 L286.687439,88.203064 L454.498046,255.998047 L248.091267,255.998047 L219.310108,180.039803 Z"></path>
        <linearGradient x1="50%" y1="4.07963967%" x2="50%" y2="100%" id="linearGradient-30">
            <stop stop-color="#FFCBCA" offset="0%"></stop>
            <stop stop-color="#F59965" offset="100%"></stop>
            <stop stop-color="#B43B3A" offset="100%"></stop>
        </linearGradient>
        <linearGradient x1="184.805687%" y1="131.49959%" x2="-73.6896584%" y2="-8.20957211%" id="linearGradient-31">
            <stop stop-color="#FFFFFF" stop-opacity="0.5" offset="0%"></stop>
            <stop stop-color="#000000" stop-opacity="0.5" offset="100%"></stop>
        </linearGradient>
        <path id="path-32" d="M249.374939,70.265564 L254.968689,76.124939 L249.859314,74.453064 L245.812439,75.531189 L249.374939,70.265564 Z"></path>
        <path id="path-33" d="M243.692288,60.763927 L229.518589,63.5706005 L251.129972,53.7472438 L245.249939,67.4999389 L243.692288,60.763927 Z"></path>
        <path id="path-34" d="M244.569066,73.2653694 L242.983369,72.9059448 L249.390564,70.249939 L245.858766,75.5487731 L244.569066,73.2653694 Z"></path>
        <path id="path-35" d="M232.828065,0 L291.397019,60.6885567 L265.180432,42.1898003 L243.999509,33.3812561 L225.249512,56 L232.828065,0 Z"></path>
        <path id="path-36" d="M218.620827,46.1072311 L215.022202,37.1106682 L197.976077,46.1072311 L169.497388,66.7625122 L232.828065,0 L291.371312,60.7142639 L265.537648,42.5470123 L243.999509,33.3812561 L237.371564,43.6450157 L225.249512,56 L218.620827,46.1072311 Z"></path>
        <path id="path-37" d="M251.093689,53.765564 L259.937439,63.859314 L251.928292,62.4282923 L245.218689,67.499939 L251.093689,53.765564 Z"></path>
        <path id="path-38" d="M251.093689,53.765564 L259.937439,63.859314 L251.928292,62.4282923 L251.093689,53.765564 Z"></path>
        <linearGradient x1="50%" y1="142.129216%" x2="23.1124037%" y2="-42.4436205%" id="linearGradient-39">
            <stop stop-color="#FFFFFF" stop-opacity="0.5" offset="0%"></stop>
            <stop stop-color="#FB9F69" offset="100%"></stop>
        </linearGradient>
        <path id="path-40" d="M13.1480387,11.6109516 C12.1983646,10.1397758 9.90690953,10.6157272 9.90690953,10.6157272 L7.56818914,11.021189 C7.56818914,11.021189 3.74591297,16.1078918 0.0373432947,19.6833275 C0.0373432947,19.6833275 6.16347178,23.4062041 9.47061297,24.2539879 C13.6162778,23.2219033 19.859466,20.6785521 19.859466,20.6785521 C17.8997655,18.636473 14.6969611,14.0104457 13.1480387,11.6109516 Z"></path>
        <path id="path-41" d="M11.8736325,7.22998273 C10.9239584,5.7588069 9.90690953,4.71810098 9.90690953,4.71810098 C9.90690953,4.71810098 8.80303406,5.71625268 7.98269879,7.02706159 C6.47619672,9.43429241 4.006718,12.8764285 2.60534773,14.3849491 C2.60534773,14.3849491 6.97240859,16.69391 9.47061297,18.3563616 C11.6001895,17.3712051 17.4012107,15.2161752 17.4012107,15.2161752 C15.4415101,13.174096 13.4225549,9.62947675 11.8736325,7.22998273 Z"></path>
        <path id="path-42" d="M9.64035451,-1.22568622e-13 C9.64035451,-1.22568622e-13 9.05094635,3.53857574 4.91651076,9.49579334 C4.91651076,9.49579334 7.52916921,10.800028 9.64035451,11.9778153 C11.5092017,11.3897907 14.9104772,10.2508493 14.9104772,10.2508493 C10.845863,3.31741475 9.64035451,-1.22568622e-13 9.64035451,-1.22568622e-13 Z"></path>
        <path id="path-43" d="M13.8222971,12.0662831 C12.8239217,10.5374141 10.4149562,11.0320302 10.4149562,11.0320302 L7.95630141,11.4533925 C7.95630141,11.4533925 3.93801107,16.7395738 0.0392583354,20.4552227 C0.0392583354,20.4552227 6.47954725,24.3240945 9.95628543,25.2051246 C14.3145484,24.1325661 20.8779002,21.4894758 20.8779002,21.4894758 C18.8177022,19.367315 15.4506514,14.5598749 13.8222971,12.0662831 Z"></path>
        <path id="path-44" d="M12.4825367,7.51351147 C11.4841614,5.98464246 10.4149562,4.90312455 10.4149562,4.90312455 C10.4149562,4.90312455 9.2544717,5.94041945 8.39206796,7.30263263 C6.80830937,9.80426466 4.21219072,13.3813864 2.7389553,14.9490647 C2.7389553,14.9490647 7.32996801,17.3485731 9.95628543,19.076219 C12.195071,18.0524288 18.2935804,15.812888 18.2935804,15.812888 C16.2333824,13.6907272 14.1108911,10.0071033 12.4825367,7.51351147 Z"></path>
        <path id="path-45" d="M10.1347317,6.21724894e-14 C10.1347317,6.21724894e-14 9.51509745,3.67734341 5.16863952,9.8681774 C5.16863952,9.8681774 7.91528045,11.2235585 10.1347317,12.4475336 C12.0994172,11.8364491 15.6751171,10.6528434 15.6751171,10.6528434 C11.4020611,3.44750945 10.1347317,6.21724894e-14 10.1347317,6.21724894e-14 Z"></path>
        <path id="path-46" d="M21.2391394,18.6685889 C19.7050505,16.3031689 16.0034692,17.0684241 16.0034692,17.0684241 L12.2255363,17.7203431 C12.2255363,17.7203431 6.05109018,25.8989633 0.0603237837,31.6477031 C0.0603237837,31.6477031 9.95637749,37.6335046 15.2986825,38.9966079 C21.9955256,37.3371778 32.0806759,33.2478681 32.0806759,33.2478681 C28.9150057,29.9645251 23.7412449,22.5265989 21.2391394,18.6685889 Z"></path>
        <linearGradient x1="50%" y1="142.129216%" x2="23.1124037%" y2="-42.4436205%" id="linearGradient-47">
            <stop stop-color="#FFFFFF" stop-opacity="0.543449955" offset="0%"></stop>
            <stop stop-color="#FB9F69" offset="100%"></stop>
        </linearGradient>
        <path id="path-48" d="M19.1804832,11.6246781 C17.6463943,9.25925815 16.0034692,7.58596629 16.0034692,7.58596629 C16.0034692,7.58596629 14.2202858,9.19083765 12.8951288,11.2984128 C10.4615485,15.1688623 6.47239062,20.7032771 4.20863864,23.1287417 C4.20863864,23.1287417 11.2631216,26.8411886 15.2986825,29.5141501 C18.7387677,27.9301729 28.109648,24.4652229 28.109648,24.4652229 C24.9439778,21.1818799 21.6825887,15.4826881 19.1804832,11.6246781 Z"></path>
        <path id="path-49" d="M15.5728804,1.59872116e-14 C15.5728804,1.59872116e-14 14.6207595,5.68947471 7.94205585,15.2677462 C7.94205585,15.2677462 12.1625041,17.364751 15.5728804,19.2584482 C18.5917874,18.3129967 24.0861555,16.4817577 24.0861555,16.4817577 C17.5202402,5.33388255 15.5728804,1.59872116e-14 15.5728804,1.59872116e-14 Z"></path>
        <linearGradient x1="10.2048611%" y1="36.7641102%" x2="96.4270833%" y2="105.544261%" id="linearGradient-50">
            <stop stop-color="#7F2120" offset="0%"></stop>
            <stop stop-color="#FF8A48" offset="100%"></stop>
        </linearGradient>
        <path id="path-51" d="M26.6761367,71.5230499 L66.6644485,1.11154804 L120.568102,69.6259476 L26.6761367,71.5230499 Z"></path>
        <linearGradient x1="16.3959972%" y1="85.4433897%" x2="-4.13691586%" y2="105.03339%" id="linearGradient-52">
            <stop stop-color="#F6814A" offset="0%"></stop>
            <stop stop-color="#FF8A48" offset="100%"></stop>
        </linearGradient>
        <path id="path-53" d="M3.62217839,18.6919624 L15.4340672,0.0653517868 L30.1890481,15.9776023 L3.62217839,18.6919624 Z"></path>
    </defs>
    <g id="Page-1" stroke="none" stroke-width="1" fill="none" fill-rule="evenodd">
        <g id="mountain-scene-2">
            <g id="lake" transform="translate(15.000000, 317.000000)">
                <g id="Combined-Shape">
                    <use fill="url(#linearGradient-1)" xlink:href="#path-3"></use>
                    <use fill="url(#linearGradient-2)" xlink:href="#path-3"></use>
                </g>
                <g id="Path-886">
                    <mask id="mask-5" fill="white">
                        <use xlink:href="#path-4"></use>
                    </mask>
                    <g id="Mask">
                        <use fill="url(#linearGradient-1)" xlink:href="#path-4"></use>
                        <use fill="url(#linearGradient-2)" xlink:href="#path-4"></use>
                    </g>
                    <g>
                        <use fill="url(#linearGradient-6)" mask="url(#mask-5)" xlink:href="#path-7"></use>
                        <use fill-opacity="0.04" fill="none" xlink:href="#path-7"></use>
                    </g>
                </g>
                <rect id="Rectangle-83-Copy-6" fill="#FB9F69" x="275" y="105" width="113" height="19" rx="13"></rect>
                <rect id="Rectangle-83-Copy-10" fill="#9E3B30" x="557" y="21" width="113" height="13" rx="13"></rect>
                <rect id="Rectangle-83-Copy-8" fill="#FB9F69" x="154" y="42" width="113" height="13" rx="13"></rect>
                <rect id="Rectangle-83-Copy-9" fill="#FB9F69" x="280" y="24" width="75" height="6" rx="13"></rect>
                <g id="fish" transform="translate(274.000000, 72.000000)">
                    <path d="M2.55935756,11.1719567 C2.23009729,12.3282377 4.44679699,14.005199 6.29386887,14.2764548 C7.48852114,14.6474212 14.6654783,13.2683217 17.1704004,9.52092499 C19.6407197,6.38124452 20.4413415,4.80833699 20.9154886,2.88930608 C20.9323981,2.72153245 21.0126333,2.62074096 21.4285493,2.13685209 C21.5648202,1.98487262 21.9335535,1.12020978 21.9247415,0.926683338 C21.8159906,0.72440851 21.6022466,0.718756827 21.6022466,0.718756827 C21.6022466,0.718756827 21.5878864,0.865192418 21.5377485,1.04772485 C21.1361312,1.65103828 20.852384,1.84203051 20.5829272,2.09972344 C20.215747,2.09972339 20.5876586,0.608279482 21.0946677,0.335828281 C21.4444512,0.391790728 21.2187812,-0.0217369661 21.0433891,0.0132049168 C19.367076,0.18877671 18.4235502,1.42564851 17.2870209,2.09972346 C16.3183943,2.72536641 14.750378,3.82406905 13.947409,4.6445491 C13.14444,5.46502914 9.578045,10.1600611 6.64554548,11.5552289 C5.47067696,11.8636116 4.37792097,11.8910742 3.69448907,10.9000059 C3.69448907,10.9000059 2.95576253,10.2476522 2.55935756,11.1719567 Z" id="Path-908" fill="#AD4141"></path>
                    <path d="M20.2575001,4.76005195 C20.4828956,4.2265941 20.4413415,4.80833699 20.9154886,2.88930608 C20.9323981,2.72153245 21.0126333,2.62074096 21.4285493,2.13685209 C21.5648202,1.98487262 21.9335535,1.12020978 21.9247415,0.926683338 C21.8159906,0.72440851 21.6022466,0.718756827 21.6022466,0.718756827 C21.6022466,0.718756827 21.5878864,0.865192418 21.5377485,1.04772485 C21.1361312,1.65103828 20.852384,1.84203051 20.5829272,2.09972344 C20.215747,2.09972339 20.5876586,0.608279482 21.0946677,0.335828281 C21.4444512,0.391790728 21.2187812,-0.0217369661 21.0433891,0.0132049168 C19.367076,0.18877671 18.4235502,1.42564851 17.2870209,2.09972346 C16.3183943,2.72536641 17.5101535,6.69201954 20.2575001,4.76005195 Z" id="Path-908-Copy" fill="#962B2B"></path>
                    <path d="M4.08364292,13.4010856 C0.442885252,12.8573561 0.0384618844,11.9429748 0.0384618844,11.9429748 L0.550790025,11.6319161 C0.550790025,11.6319161 1.26932991,12.0745812 1.32321337,12.0084573 C1.37727579,11.9421138 0.425258933,11.4089949 0.482841811,11.3418122 C0.583102625,11.2248367 1.11566865,10.4341885 1.22080461,10.3644915 C1.29210088,10.3172276 2.0259626,10.7363242 2.0259626,10.7363242 C2.0259626,10.7363242 1.23746144,10.1742297 1.22080456,10.0598491 C1.17300833,9.73163874 1.07741587,9.07521806 1.07741587,9.07521806 L1.75953915,9.51391976 C1.75953915,9.51391976 1.11804262,8.96911634 1.07741587,8.73266386 C1.04560755,8.54753575 0.904465786,8.27102717 0.904465786,8.27102717 L1.51408193,8.73266386 L1.07741583,7.7565184 C1.07741583,7.7565184 3.35475698,10.1317686 3.77799974,11.0163922 C3.52703914,10.9706774 1.32512514,11.2315976 4.08364292,13.4010856 Z" id="Path-909" fill="#962B2B"></path>
                    <path d="M7.32630537,14.309358 C7.32630537,14.309358 6.82970188,14.5779327 6.69898308,14.6467374 C6.56826429,14.7155421 6.70805989,14.971148 6.70805989,14.971148 L7.06991759,14.8148841 L6.61494956,15.1254244 L6.51207761,15.383529 C6.51207761,15.383529 6.50904765,15.7733864 6.67488481,15.8561237 C6.7158393,15.8765562 6.96530709,15.6096484 6.99734217,15.6256309 C7.02153398,15.6377003 7.06991759,15.6618393 7.06991759,15.6618393 L6.78399823,15.9501296 L7.42269848,15.6844937 C7.42269848,15.6844937 8.91304449,14.8052858 9.48920574,13.9257255 C8.56370775,14.1761812 7.32630537,14.309358 7.32630537,14.309358 Z" id="Path-910" fill="#962B2B"></path>
                    <path d="M12.9479421,5.81211656 C12.9479421,5.81211656 11.5843825,6.96882224 11.2243371,7.28093666 C10.8406088,7.61358103 10.7132381,7.77690155 10.0825478,8.21152002 C9.94982654,8.37936573 8.43720043,8.8730265 8.43720043,8.8730265 L9.19767675,9.19564737 L9.89625263,8.76082788 L9.40170546,9.201804 C9.40170546,9.201804 9.68755527,9.38947518 9.69222392,9.25155451 C10.2455302,8.95785729 12.9479421,5.81211656 12.9479421,5.81211656 Z" id="Path-911" fill="#962B2B"></path>
                    <path d="M19.59375,2.34243746 C19.7835979,2.34243746 19.9247038,2.15806443 19.9247038,1.91411043 C19.9247038,1.67015643 19.7835979,1.47239264 19.59375,1.47239264 C19.4039021,1.47239264 19.25,1.67015643 19.25,1.91411043 C19.25,2.15806443 19.4039021,2.34243746 19.59375,2.34243746 Z" id="Oval-70" fill="#C24848"></path>
                    <ellipse id="Oval-71" fill="#FD9559" cx="19.5482143" cy="1.91871166" rx="0.2" ry="0.25"></ellipse>
                    <path id="Oval-72" fill="#383636" d="M19.5465501,2.00746992 C19.6293928,2.00746992 19.6471804,1.92270976 19.6471804,1.86748129 C19.6471804,1.81225281 19.6293928,1.73433125 19.5465501,1.73433125 C19.4637074,1.73433125 19.4050753,1.81225281 19.4050753,1.86748128 C19.4050753,1.92270976 19.4637074,2.00746992 19.5465501,2.00746992 Z"></path>
                    <path d="M20.1182109,2.84837842 C20.1182109,2.84837842 19.8998066,2.59207144 20.0996713,2.1509401 C20.2995359,1.70980877 20.4082548,1.36205558 20.4082548,1.25565131 C20.4082548,1.14924703 20.5036767,1.89191082 20.5036767,1.99670513 C20.5036767,2.10149944 20.6367636,2.35666477 20.5225092,2.60252161 C20.4082548,2.84837844 20.3171383,3.03232471 20.2334025,3.03232463 C20.1496667,3.03232455 20.1182109,2.84837842 20.1182109,2.84837842 Z" id="Path-912" fill="#AD4141" opacity="0.619402985"></path>
                    <path d="M18.8204634,5.71372276 C18.8204634,5.71372276 19.2538837,5.24761159 19.2538837,5.43143616 C19.2538837,5.61526074 19.1973116,5.63517387 19.1973116,5.63517387 C19.1973116,5.63517387 19.0555534,6.02428761 19.0555534,6.10840258 C19.0555534,6.19251756 19.0884965,7.07291771 19.062835,7.29883984 C19.0371735,7.52476197 18.9069138,7.9102768 18.8875017,7.95885211 C18.8680895,8.00742742 18.8787478,7.6215125 18.8787478,7.6215125 L18.7044227,8.12994508 L18.7471038,7.46446269 L18.6199247,7.73520128 C18.6199247,7.73520128 18.8219517,6.80368268 18.8219517,6.53687874 C18.8219517,6.2700748 18.7566098,6.09925375 18.8176788,5.97464074 C18.8787478,5.85002772 18.8204634,5.71372276 18.8204634,5.71372276 Z" id="Path-913" fill="#962B2B"></path>
                    <path d="M13.853438,12.2472924 C13.853438,12.2472924 14.0026698,12.3039929 13.9444974,12.4044382 C13.886325,12.5048836 13.6519231,12.7407542 13.6519231,12.7407542 C13.6519231,12.7407542 13.4804626,12.8785306 13.6005362,12.9260183 C13.7206097,12.9735059 14.1685451,13.1855287 14.2487862,13.1174562 C14.3290273,13.0493837 14.3813264,12.7027673 14.3813264,12.7027673 L14.4350018,12.9187248 C14.4350018,12.9187248 14.7807394,12.8697017 14.8347989,12.7068619 C14.8888585,12.5440221 14.9936167,11.5775875 14.9441662,11.5223106 C14.8947157,11.4670336 13.853438,12.2472924 13.853438,12.2472924 Z" id="Path-914" fill="#962B2B"></path>
                    <g id="dots" transform="translate(17.285714, 2.257669)" fill="#BA4545">
                        <circle id="Oval-73" cx="0.1" cy="1.37607362" r="0.1"></circle>
                        <circle id="Oval-73-Copy" cx="0.394642857" cy="1.08159509" r="0.1"></circle>
                        <circle id="Oval-73-Copy-3" cx="0.885714286" cy="1.27791411" r="0.1"></circle>
                        <circle id="Oval-73-Copy-4" cx="1.475" cy="0.590797546" r="0.1"></circle>
                        <circle id="Oval-73-Copy-8" cx="2.1625" cy="1.47423313" r="0.1"></circle>
                        <circle id="Oval-73-Copy-5" cx="2.06428571" cy="0.394478528" r="0.1"></circle>
                        <circle id="Oval-73-Copy-6" cx="1.37678571" cy="0.1" r="0.1"></circle>
                        <circle id="Oval-73-Copy-7" cx="2.1625" cy="0.885276074" r="0.1"></circle>
                        <circle id="Oval-73-Copy-2" cx="0.983928571" cy="0.885276074" r="0.1"></circle>
                        <ellipse id="Oval-74" transform="translate(0.589286, 1.717791) rotate(-9.000000) translate(-0.589286, -1.717791) " cx="0.591071429" cy="1.72055215" rx="0.1" ry="0.15"></ellipse>
                        <ellipse id="Oval-74-Copy" transform="translate(1.571429, 1.815951) rotate(-38.000000) translate(-1.571429, -1.815951) " cx="1.57321429" cy="1.81871166" rx="0.1" ry="0.15"></ellipse>
                        <ellipse id="Oval-74-Copy-5" transform="translate(1.571429, 1.030675) rotate(-38.000000) translate(-1.571429, -1.030675) " cx="1.57321429" cy="1.03343558" rx="0.1" ry="0.15"></ellipse>
                        <ellipse id="Oval-74-Copy-6" transform="translate(0.883929, 0.441718) rotate(-38.000000) translate(-0.883929, -0.441718) " cx="0.885714286" cy="0.444478528" rx="0.1" ry="0.15"></ellipse>
                        <ellipse id="Oval-74-Copy-2" transform="translate(0.785714, 2.208589) rotate(-84.000000) translate(-0.785714, -2.208589) " cx="0.7875" cy="2.21134969" rx="0.1" ry="0.15"></ellipse>
                        <path id="Oval-74-Copy-3" transform="translate(1.080357, 1.865031) rotate(-47.000000) translate(-1.080357, -1.865031) " d="M1.08214286,1.96687117 C1.13737133,1.96687117 1.18214286,1.92209964 1.18214286,1.86687117 C1.18214286,1.81164269 1.13737133,1.76687117 1.08214286,1.76687117 C1.02691438,1.76687117 0.982142857,1.81164269 0.982142857,1.86687117 C0.982142857,1.92209964 1.02691438,1.96687117 1.08214286,1.96687117 Z"></path>
                        <path id="Oval-74-Copy-7" transform="translate(1.375000, 2.453988) rotate(-47.000000) translate(-1.375000, -2.453988) " d="M1.37678571,2.55582822 C1.43201419,2.55582822 1.47678571,2.5110567 1.47678571,2.45582822 C1.47678571,2.40059975 1.43201419,2.35582822 1.37678571,2.35582822 C1.32155724,2.35582822 1.27678571,2.40059975 1.27678571,2.45582822 C1.27678571,2.5110567 1.32155724,2.55582822 1.37678571,2.55582822 Z"></path>
                        <path id="Oval-74-Copy-4" transform="translate(1.276786, 1.374233) rotate(-47.000000) translate(-1.276786, -1.374233) " d="M1.27857143,1.47607362 C1.3337999,1.47607362 1.37857143,1.43130209 1.37857143,1.37607362 C1.37857143,1.32084514 1.3337999,1.27607362 1.27857143,1.27607362 C1.22334295,1.27607362 1.17857143,1.32084514 1.17857143,1.37607362 C1.17857143,1.43130209 1.22334295,1.47607362 1.27857143,1.47607362 Z"></path>
                    </g>
                </g>
                <g id="water_droplets" transform="translate(269.000000, 83.000000)" fill="url(#linearGradient-8)">
                    <circle id="Oval-110" cx="8.5" cy="6.5" r="0.5"></circle>
                    <circle id="Oval-110-Copy-4" cx="0.5" cy="7.5" r="0.5"></circle>
                    <circle id="Oval-110-Copy" cx="5.5" cy="5.5" r="0.5"></circle>
                    <circle id="Oval-110-Copy-6" cx="8.5" cy="4.5" r="0.5"></circle>
                    <circle id="Oval-110-Copy-2" cx="8.5" cy="2.5" r="0.5"></circle>
                    <circle id="Oval-110-Copy-5" cx="5.5" cy="0.5" r="0.5"></circle>
                    <circle id="Oval-110-Copy-3" cx="4.5" cy="3.5" r="0.5"></circle>
                    <circle id="Oval-110-Copy-7" cx="0.5" cy="3.5" r="0.5"></circle>
                    <circle id="Oval-110-Copy-8" cx="2.5" cy="1.5" r="0.5"></circle>
                    <circle id="Oval-110-Copy-9" cx="2.5" cy="6.5" r="0.5"></circle>
                    <circle id="Oval-110" cx="5.5" cy="9.5" r="0.5"></circle>
                </g>
                <g id="fish-copy" transform="translate(491.500000, 30.500000) scale(-1, 1) translate(-491.500000, -30.500000) translate(484.000000, 25.000000)">
                    <path d="M1.74501652,7.68072021 C1.52052088,8.47566342 3.03190704,9.6285743 4.29127423,9.81506271 C5.10580987,10.0701021 9.99918972,9.12197115 11.7070912,6.54563593 C13.3913998,4.38710561 13.9372783,3.30573168 14.2605604,1.98639793 C14.2720896,1.87105356 14.3267954,1.80175941 14.6103745,1.46908581 C14.7032865,1.36459993 14.9546955,0.770144225 14.9486874,0.637094795 C14.874539,0.49803085 14.7288045,0.494145319 14.7288045,0.494145319 C14.7288045,0.494145319 14.7190135,0.594819787 14.6848285,0.720310836 C14.4109985,1.13508882 14.2175346,1.26639598 14.033814,1.44355986 C13.7834639,1.44355983 14.0370399,0.418192144 14.382728,0.230881943 C14.6212167,0.269356125 14.4673508,-0.0149441642 14.3477653,0.00907838031 C13.2048246,0.129783988 12.5615115,0.980133349 11.7866051,1.44355988 C11.1261779,1.87368941 10.0570759,2.62904747 9.50959705,3.19312751 C8.96211819,3.75720754 6.53048523,6.985042 4.53105373,7.94421989 C3.73000702,8.15623294 2.98494612,8.17511353 2.51896982,7.49375408 C2.51896982,7.49375408 2.01529264,7.04526087 1.74501652,7.68072021 Z" id="Path-908" fill="#AD4141"></path>
                    <path d="M13.8119319,3.27253572 C13.9656106,2.90578344 13.9372783,3.30573168 14.2605604,1.98639793 C14.2720896,1.87105356 14.3267954,1.80175941 14.6103745,1.46908581 C14.7032865,1.36459993 14.9546955,0.770144225 14.9486874,0.637094795 C14.874539,0.49803085 14.7288045,0.494145319 14.7288045,0.494145319 C14.7288045,0.494145319 14.7190135,0.594819787 14.6848285,0.720310836 C14.4109985,1.13508882 14.2175346,1.26639598 14.033814,1.44355986 C13.7834639,1.44355983 14.0370399,0.418192144 14.382728,0.230881943 C14.6212167,0.269356125 14.4673508,-0.0149441642 14.3477653,0.00907838031 C13.2048246,0.129783988 12.5615115,0.980133349 11.7866051,1.44355988 C11.1261779,1.87368941 11.938741,4.60076343 13.8119319,3.27253572 Z" id="Path-908-Copy" fill="#962B2B"></path>
                    <path d="M2.78430199,9.21324635 C0.301967217,8.83943229 0.0262240121,8.21079519 0.0262240121,8.21079519 L0.375538653,7.9969423 C0.375538653,7.9969423 0.865452215,8.30127455 0.902190936,8.25581439 C0.939051673,8.21020326 0.289949273,7.843684 0.329210326,7.79749591 C0.397569971,7.71707521 0.760683168,7.17350456 0.832366777,7.12558788 C0.880977871,7.09309395 1.38133814,7.38122288 1.38133814,7.38122288 C1.38133814,7.38122288 0.843723712,6.99478289 0.832366748,6.91614624 C0.799778408,6.69050163 0.734601727,6.23921242 0.734601727,6.23921242 L1.19968579,6.54081984 C1.19968579,6.54081984 0.762301789,6.16626748 0.734601727,6.00370641 C0.712914239,5.87643083 0.616681218,5.68633118 0.616681218,5.68633118 L1.03232859,6.00370641 L0.734601702,5.3326064 C0.734601702,5.3326064 2.28733431,6.96559091 2.57590891,7.57376967 C2.40479941,7.54234071 0.90349441,7.72172332 2.78430199,9.21324635 Z" id="Path-909" fill="#962B2B"></path>
                    <path d="M4.99520821,9.83768363 C4.99520821,9.83768363 4.65661492,10.0223287 4.56748847,10.069632 C4.47836202,10.1169352 4.5736772,10.2926643 4.5736772,10.2926643 L4.82039836,10.1852328 L4.51019288,10.3987293 L4.44005291,10.5761762 C4.44005291,10.5761762 4.43798703,10.8442031 4.55105783,10.9010851 C4.57898134,10.9151324 4.74907301,10.7316332 4.77091512,10.7426212 C4.78740953,10.750919 4.82039836,10.7675145 4.82039836,10.7675145 L4.62545334,10.9657141 L5.06093078,10.7830894 C5.06093078,10.7830894 6.07707579,10.178634 6.46991301,9.57393629 C5.83889165,9.74612458 4.99520821,9.83768363 4.99520821,9.83768363 Z" id="Path-910" fill="#962B2B"></path>
                    <path d="M8.82814232,3.99583014 C8.82814232,3.99583014 7.89844264,4.79106529 7.65295708,5.00564395 C7.39132421,5.23433696 7.30448053,5.34661981 6.87446443,5.64542001 C6.78397264,5.76081394 5.75263666,6.10020572 5.75263666,6.10020572 L6.27114324,6.32200757 L6.74744498,6.02306917 L6.41025372,6.32624025 C6.41025372,6.32624025 6.60515132,6.45526419 6.60833449,6.36044373 C6.98558881,6.15852688 8.82814232,3.99583014 8.82814232,3.99583014 Z" id="Path-911" fill="#962B2B"></path>
                    <path id="Oval-70" fill="#C24848" d="M13.365625,1.61042576 C13.4985185,1.61042576 13.5972926,1.4836693 13.5972926,1.31595092 C13.5972926,1.14823255 13.4985185,1.01226994 13.365625,1.01226994 C13.2327315,1.01226994 13.125,1.14823255 13.125,1.31595092 C13.125,1.4836693 13.2327315,1.61042576 13.365625,1.61042576 Z"></path>
                    <ellipse id="Oval-71" fill="#FD9559" cx="13.3319643" cy="1.32223926" rx="0.14" ry="0.175"></ellipse>
                    <path id="Oval-72" fill="#383636" d="M13.3297655,1.3835498 C13.3877554,1.3835498 13.4002068,1.32421769 13.4002068,1.28555776 C13.4002068,1.24689783 13.3877554,1.19235274 13.3297655,1.19235274 C13.2717756,1.19235274 13.2307331,1.24689782 13.2307331,1.28555776 C13.2307331,1.32421769 13.2717756,1.3835498 13.3297655,1.3835498 Z"></path>
                    <path id="Path-912" fill="#AD4141" opacity="0.619402985" d="M13.7188311,1.95826016 C13.7188311,1.95826016 13.5659482,1.78204911 13.7058534,1.47877132 C13.8457587,1.17549353 13.9218619,0.936413209 13.9218619,0.863260272 C13.9218619,0.790107336 13.9886572,1.30068869 13.9886572,1.37273478 C13.9886572,1.44478086 14.081818,1.62020703 14.0018399,1.78923361 C13.9218619,1.95826018 13.8580803,2.08472324 13.7994653,2.08472318 C13.7408502,2.08472313 13.7188311,1.95826016 13.7188311,1.95826016 Z"></path>
                    <path id="Path-913" fill="#962B2B" d="M12.8357803,3.9281844 C12.8357803,3.9281844 13.1391745,3.60773297 13.1391745,3.73411236 C13.1391745,3.86049176 13.0995741,3.87418203 13.0995741,3.87418203 C13.0995741,3.87418203 13.0003433,4.14169773 13.0003433,4.19952678 C13.0003433,4.25735582 13.0234034,4.86263093 13.0054404,5.01795239 C12.9874774,5.17327385 12.8962956,5.4383153 12.8827071,5.47171083 C12.8691186,5.50510635 12.8765794,5.23978985 12.8765794,5.23978985 L12.7545518,5.58933724 L12.7844286,5.1318181 L12.6954032,5.31795088 C12.6954032,5.31795088 12.8368221,4.67753185 12.8368221,4.49410414 C12.8368221,4.31067643 12.7910828,4.19323695 12.8338311,4.10756551 C12.8765794,4.02189406 12.8357803,3.9281844 12.8357803,3.9281844 Z"></path>
                    <path d="M9.44552593,8.42001355 C9.44552593,8.42001355 9.54727486,8.45899509 9.50761187,8.52805127 C9.46794888,8.59710745 9.3081294,8.75926849 9.3081294,8.75926849 C9.3081294,8.75926849 9.19122452,8.85398982 9.27309285,8.88663755 C9.35496119,8.91928528 9.66037165,9.06505098 9.71508149,9.01825114 C9.76979133,8.97145129 9.80544982,8.73315251 9.80544982,8.73315251 L9.8420467,8.88162328 C9.8420467,8.88162328 10.0777769,8.8479199 10.1146356,8.73596753 C10.1514944,8.62401516 10.2229205,7.95959142 10.1892042,7.92158853 C10.155488,7.88358563 9.44552593,8.42001355 9.44552593,8.42001355 Z" id="Path-914" fill="#962B2B"></path>
                    <g id="dots" transform="translate(11.785714, 1.552147)" fill="#BA4545">
                        <circle id="Oval-73" cx="0.07" cy="0.947300613" r="0.07"></circle>
                        <circle id="Oval-73-Copy" cx="0.270892857" cy="0.744846626" r="0.07"></circle>
                        <circle id="Oval-73-Copy-3" cx="0.605714286" cy="0.879815951" r="0.07"></circle>
                        <circle id="Oval-73-Copy-4" cx="1.0075" cy="0.407423313" r="0.07"></circle>
                        <circle id="Oval-73-Copy-8" cx="1.47625" cy="1.01478528" r="0.07"></circle>
                        <circle id="Oval-73-Copy-5" cx="1.40928571" cy="0.272453988" r="0.07"></circle>
                        <circle id="Oval-73-Copy-6" cx="0.940535714" cy="0.07" r="0.07"></circle>
                        <circle id="Oval-73-Copy-7" cx="1.47625" cy="0.609877301" r="0.07"></circle>
                        <circle id="Oval-73-Copy-2" cx="0.672678571" cy="0.609877301" r="0.07"></circle>
                        <ellipse id="Oval-74" transform="translate(0.401786, 1.180982) rotate(-9.000000) translate(-0.401786, -1.180982) " cx="0.404821429" cy="1.1847546" rx="0.07" ry="0.105"></ellipse>
                        <ellipse id="Oval-74-Copy" transform="translate(1.071429, 1.248466) rotate(-38.000000) translate(-1.071429, -1.248466) " cx="1.07446429" cy="1.25223926" rx="0.07" ry="0.105"></ellipse>
                        <ellipse id="Oval-74-Copy-5" transform="translate(1.071429, 0.708589) rotate(-38.000000) translate(-1.071429, -0.708589) " cx="1.07446429" cy="0.712361963" rx="0.07" ry="0.105"></ellipse>
                        <ellipse id="Oval-74-Copy-6" transform="translate(0.602679, 0.303681) rotate(-38.000000) translate(-0.602679, -0.303681) " cx="0.605714286" cy="0.307453988" rx="0.07" ry="0.105"></ellipse>
                        <ellipse id="Oval-74-Copy-2" transform="translate(0.535714, 1.518405) rotate(-84.000000) translate(-0.535714, -1.518405) " cx="0.53875" cy="1.52217791" rx="0.07" ry="0.105"></ellipse>
                        <path id="Oval-74-Copy-3" transform="translate(0.736607, 1.282209) rotate(-47.000000) translate(-0.736607, -1.282209) " d="M0.739642857,1.35472393 C0.77830279,1.35472393 0.809642857,1.32338386 0.809642857,1.28472393 C0.809642857,1.24606399 0.77830279,1.21472393 0.739642857,1.21472393 C0.700982925,1.21472393 0.669642857,1.24606399 0.669642857,1.28472393 C0.669642857,1.32338386 0.700982925,1.35472393 0.739642857,1.35472393 Z"></path>
                        <path id="Oval-74-Copy-7" transform="translate(0.937500, 1.687117) rotate(-47.000000) translate(-0.937500, -1.687117) " d="M0.940535714,1.7596319 C0.979195647,1.7596319 1.01053571,1.72829183 1.01053571,1.6896319 C1.01053571,1.65097197 0.979195647,1.6196319 0.940535714,1.6196319 C0.901875782,1.6196319 0.870535714,1.65097197 0.870535714,1.6896319 C0.870535714,1.72829183 0.901875782,1.7596319 0.940535714,1.7596319 Z"></path>
                        <path id="Oval-74-Copy-4" transform="translate(0.870536, 0.944785) rotate(-47.000000) translate(-0.870536, -0.944785) " d="M0.873571429,1.01730061 C0.912231361,1.01730061 0.943571429,0.985960546 0.943571429,0.947300613 C0.943571429,0.908640681 0.912231361,0.877300613 0.873571429,0.877300613 C0.834911496,0.877300613 0.803571429,0.908640681 0.803571429,0.947300613 C0.803571429,0.985960546 0.834911496,1.01730061 0.873571429,1.01730061 Z"></path>
                    </g>
                </g>
                <g id="water_droplets-copy" transform="translate(499.000000, 36.500000) scale(-1, 1) translate(-499.000000, -36.500000) translate(496.000000, 33.000000)" fill="url(#linearGradient-8)">
                    <ellipse id="Oval-110" cx="5.66666667" cy="4.55" rx="0.333333333" ry="0.35"></ellipse>
                    <ellipse id="Oval-110-Copy-4" cx="0.333333333" cy="5.25" rx="0.333333333" ry="0.35"></ellipse>
                    <ellipse id="Oval-110-Copy" cx="3.66666667" cy="3.85" rx="0.333333333" ry="0.35"></ellipse>
                    <ellipse id="Oval-110-Copy-6" cx="5.66666667" cy="3.15" rx="0.333333333" ry="0.35"></ellipse>
                    <ellipse id="Oval-110-Copy-2" cx="5.66666667" cy="1.75" rx="0.333333333" ry="0.35"></ellipse>
                    <ellipse id="Oval-110-Copy-5" cx="3.66666667" cy="0.35" rx="0.333333333" ry="0.35"></ellipse>
                    <ellipse id="Oval-110-Copy-3" cx="3" cy="2.45" rx="0.333333333" ry="0.35"></ellipse>
                    <ellipse id="Oval-110-Copy-7" cx="0.333333333" cy="2.45" rx="0.333333333" ry="0.35"></ellipse>
                    <ellipse id="Oval-110-Copy-8" cx="1.66666667" cy="1.05" rx="0.333333333" ry="0.35"></ellipse>
                    <ellipse id="Oval-110-Copy-9" cx="1.66666667" cy="4.55" rx="0.333333333" ry="0.35"></ellipse>
                    <ellipse id="Oval-110" cx="3.66666667" cy="6.65" rx="0.333333333" ry="0.35"></ellipse>
                </g>
            </g>
            <g id="mtn" transform="translate(119.000000, 47.000000)">
                <g id="sun">
                    <circle id="sun-copy-2" fill="#FA9F69" opacity="0.141732743" cx="87.5" cy="87.5" r="87.5"></circle>
                    <circle id="sun-copy" fill="#FA9F69" opacity="0.290986474" cx="88" cy="86" r="71"></circle>
                    <circle fill="#FD9559" cx="88" cy="86" r="54"></circle>
                </g>
                <g transform="translate(64.000000, 23.000000)">
                    <g id="base">
                        <use fill="url(#linearGradient-9)" xlink:href="#path-10"></use>
                        <use fill-opacity="0.04" fill="none" xlink:href="#path-10"></use>
                    </g>
                    <g id="Path-877-Copy">
                        <use fill="url(#linearGradient-11)" xlink:href="#path-12"></use>
                        <use fill-opacity="0.04" fill="none" xlink:href="#path-12"></use>
                    </g>
                    <path d="M249.361112,70.2871785 L275.500001,97.4980462 L269.999624,108.182319 L223.222222,108.444011 L249.361112,70.2871785 Z" id="Path-880-Copy" fill="url(#linearGradient-13)"></path>
                    <path d="M254.891235,96.8424072 L268.117417,104.882123 L252.359985,104.561157 L254.891235,96.8424072 Z" id="Path-880" fill="url(#linearGradient-14)"></path>
                    <g id="Combined-Shape">
                        <use fill="url(#linearGradient-9)" fill-rule="evenodd" xlink:href="#path-15"></use>
                        <use fill="none" xlink:href="#path-15"></use>
                    </g>
                    <g id="ridge-copy">
                        <use fill="url(#linearGradient-16)" xlink:href="#path-17"></use>
                        <use fill-opacity="0.04" fill="none" xlink:href="#path-17"></use>
                    </g>
                    <g id="trees_white-copy" transform="translate(457.127414, 228.365734) scale(-1, 1) rotate(3.000000) translate(-457.127414, -228.365734) translate(426.127414, 201.865734)">
                        <g id="tree" transform="translate(49.674964, 25.971693) rotate(-5.000000) translate(-49.674964, -25.971693) translate(38.674964, 11.471693)">
                            <g id="tree_middle">
                                <use fill="#B5ACAC" xlink:href="#path-19"></use>
                                <use fill-opacity="0.8" fill="url(#linearGradient-18)" xlink:href="#path-19"></use>
                            </g>
                            <g id="tree_middle-copy-2">
                                <use fill="#C8C2C2" xlink:href="#path-20"></use>
                                <use fill-opacity="0.6" fill="url(#linearGradient-18)" xlink:href="#path-20"></use>
                            </g>
                            <g id="tree_middle-copy">
                                <use fill="#D7D7D7" xlink:href="#path-21"></use>
                                <use fill-opacity="0.7" fill="url(#linearGradient-18)" xlink:href="#path-21"></use>
                            </g>
                        </g>
                        <g id="tree-copy-2" transform="translate(14.948758, 35.156674) rotate(-9.000000) translate(-14.948758, -35.156674) translate(2.448758, 19.656674)">
                            <g id="tree_middle">
                                <use fill="#B5ACAC" xlink:href="#path-22"></use>
                                <use fill-opacity="0.8" fill="url(#linearGradient-18)" xlink:href="#path-22"></use>
                            </g>
                            <g id="tree_middle-copy-2">
                                <use fill="#C8C2C2" xlink:href="#path-23"></use>
                                <use fill-opacity="0.6" fill="url(#linearGradient-18)" xlink:href="#path-23"></use>
                            </g>
                            <g id="tree_middle-copy">
                                <use fill="#D7D7D7" xlink:href="#path-24"></use>
                                <use fill-opacity="0.7" fill="url(#linearGradient-18)" xlink:href="#path-24"></use>
                            </g>
                        </g>
                        <g id="tree-copy" transform="translate(30.101959, 26.443580) rotate(-7.000000) translate(-30.101959, -26.443580) translate(11.601959, 2.443580)">
                            <g id="tree_middle">
                                <use fill="#B5ACAC" xlink:href="#path-25"></use>
                                <use fill-opacity="0.8" fill="url(#linearGradient-18)" xlink:href="#path-25"></use>
                            </g>
                            <g id="tree_middle-copy-2">
                                <use fill="#C8C2C2" xlink:href="#path-26"></use>
                                <use fill-opacity="0.6" fill="url(#linearGradient-18)" xlink:href="#path-26"></use>
                            </g>
                            <g id="tree_middle-copy">
                                <use fill="#D7D7D7" xlink:href="#path-27"></use>
                                <use fill-opacity="0.7" fill="url(#linearGradient-18)" xlink:href="#path-27"></use>
                            </g>
                        </g>
                    </g>
                    <g id="Path-877">
                        <use fill="url(#linearGradient-28)" xlink:href="#path-29"></use>
                        <use fill-opacity="0.04" fill="none" xlink:href="#path-29"></use>
                    </g>
                    <g id="top-copy-5">
                        <use fill="none" xlink:href="#path-32"></use>
                        <use fill="url(#linearGradient-30)" fill-rule="evenodd" xlink:href="#path-32"></use>
                        <use fill="url(#linearGradient-31)" fill-rule="evenodd" xlink:href="#path-32"></use>
                    </g>
                    <g id="top">
                        <use fill="none" xlink:href="#path-33"></use>
                        <use fill="url(#linearGradient-30)" fill-rule="evenodd" xlink:href="#path-33"></use>
                    </g>
                    <g id="top-copy-4">
                        <use fill="none" xlink:href="#path-34"></use>
                        <use fill="url(#linearGradient-30)" fill-rule="evenodd" xlink:href="#path-34"></use>
                    </g>
                    <g id="top-copy-3">
                        <use fill="none" xlink:href="#path-35"></use>
                        <use fill="url(#linearGradient-30)" fill-rule="evenodd" xlink:href="#path-35"></use>
                        <use fill="url(#linearGradient-31)" fill-rule="evenodd" xlink:href="#path-35"></use>
                    </g>
                    <g id="top-copy-2">
                        <use fill="none" xlink:href="#path-36"></use>
                        <use fill="url(#linearGradient-30)" fill-rule="evenodd" xlink:href="#path-36"></use>
                    </g>
                    <g id="top-copy">
                        <use fill="none" xlink:href="#path-37"></use>
                        <use fill="url(#linearGradient-30)" fill-rule="evenodd" xlink:href="#path-37"></use>
                        <use fill="url(#linearGradient-31)" fill-rule="evenodd" xlink:href="#path-37"></use>
                    </g>
                    <g id="top-copy-6">
                        <use fill="none" xlink:href="#path-38"></use>
                        <use fill="url(#linearGradient-30)" fill-rule="evenodd" xlink:href="#path-38"></use>
                        <use fill="url(#linearGradient-31)" fill-rule="evenodd" xlink:href="#path-38"></use>
                    </g>
                    <path d="M265.418572,42.6660841 L244.026396,33.6997348 L232.857346,0.0656621626 L291.241019,60.4800731 L265.418572,42.6660841 Z" id="Path-897" fill-opacity="0.18" fill="#000000"></path>
                </g>
            </g>
            <g id="trees" transform="translate(160.000000, 170.000000)">
                <g id="trees_white" transform="translate(29.413217, 135.369173) rotate(4.000000) translate(-29.413217, -135.369173) translate(1.413217, 114.869173)">
                    <g id="tree" transform="translate(35.440959, 9.270705)">
                        <g id="tree_middle">
                            <use fill="#B5ACAC" xlink:href="#path-40"></use>
                            <use fill-opacity="0.2" fill="url(#linearGradient-39)" xlink:href="#path-40"></use>
                        </g>
                        <g id="tree_middle-copy-2">
                            <use fill="#C8C2C2" xlink:href="#path-41"></use>
                            <use fill-opacity="0.5" fill="url(#linearGradient-39)" xlink:href="#path-41"></use>
                        </g>
                        <g id="tree_middle-copy">
                            <use fill="#D7D7D7" xlink:href="#path-42"></use>
                            <use fill="url(#linearGradient-39)" xlink:href="#path-42"></use>
                        </g>
                    </g>
                    <g id="tree-copy-2" transform="translate(0.000000, 14.267052)">
                        <g id="tree_middle">
                            <use fill="#B5ACAC" xlink:href="#path-43"></use>
                            <use fill-opacity="0.2" fill="url(#linearGradient-39)" xlink:href="#path-43"></use>
                        </g>
                        <g id="tree_middle-copy-2">
                            <use fill="#C8C2C2" xlink:href="#path-44"></use>
                            <use fill-opacity="0.5" fill="url(#linearGradient-39)" xlink:href="#path-44"></use>
                        </g>
                        <g id="tree_middle-copy">
                            <use fill="#D7D7D7" xlink:href="#path-45"></use>
                            <use fill="url(#linearGradient-39)" xlink:href="#path-45"></use>
                        </g>
                    </g>
                    <g id="tree-copy" transform="translate(13.266775, -0.000000)">
                        <g id="tree_middle">
                            <use fill="#B5ACAC" xlink:href="#path-46"></use>
                            <use fill-opacity="0.2" fill="url(#linearGradient-39)" xlink:href="#path-46"></use>
                        </g>
                        <g id="tree_middle-copy-2">
                            <use fill="#C8C2C2" xlink:href="#path-48"></use>
                            <use fill-opacity="0.5" fill="url(#linearGradient-47)" xlink:href="#path-48"></use>
                        </g>
                        <g id="tree_middle-copy">
                            <use fill="#D7D7D7" xlink:href="#path-49"></use>
                            <use fill="url(#linearGradient-39)" xlink:href="#path-49"></use>
                        </g>
                    </g>
                </g>
            </g>
            <g id="tiny-mtn" transform="translate(361.000000, 257.000000)">
                <g id="Path-883">
                    <use fill="url(#linearGradient-50)" xlink:href="#path-51"></use>
                    <use fill-opacity="0.04" fill="none" xlink:href="#path-51"></use>
                </g>
                <path d="M66.8619766,0.950086713 L45.792572,5.09640181 L0.273513794,58.6322123 L27.0584793,71.6089722 L66.8619766,0.950086713 Z" id="Path-884" fill="url(#linearGradient-52)"></path>
            </g>
            <g id="tiny-mtn-copy-2" transform="translate(480.000000, 357.000000)">
                <path d="M2.79763429,10.8216625 L9.94693539,0.037835245 L17.0809576,9.36169541 L2.79763429,10.8216625 Z" id="Path-883" fill="url(#linearGradient-50)"></path>
                <path d="M9.9470791,0.0353182683 L3.48936559,6.29017533 L0.112616309,10.8211805 L2.80471446,10.8211806 L9.9470791,0.0353182683 Z" id="Path-884" fill="#F48B59"></path>
            </g>
            <g id="tiny-mtn-copy" transform="translate(434.000000, 334.000000)">
                <g id="Path-883">
                    <use fill="url(#linearGradient-50)" xlink:href="#path-53"></use>
                    <use fill-opacity="0.04" fill="none" xlink:href="#path-53"></use>
                </g>
                <path d="M15.4343046,0.0610042816 L11.0786799,3.71436751 L0.463634002,14.1451117 L3.63387606,18.6911302 L15.4343046,0.0610042816 Z" id="Path-884" fill="#F48B59"></path>
            </g>
            <g id="tiny-mtn-copy-3" transform="translate(459.000000, 358.000000)">
                <path d="M2.70290783,6.88651248 L7.05465632,0.0240769741 L11.7304671,5.67982677 L2.70290783,6.88651248 Z" id="Path-883" fill="url(#linearGradient-50)"></path>
                <path d="M7.0547438,0.0224752616 L3.05366703,2.91427781 L0.240631064,5.31584408 L2.7072175,6.88620586 L7.0547438,0.0224752616 Z" id="Path-884" fill="#F48B59"></path>
            </g>
            <g id="tiny-mtn-copy-4" transform="translate(531.000000, 335.000000)">
                <path d="M1.33799901,5.90272498 L4.75722997,0.0206374064 L9.77276196,4.44690265 L1.33799901,5.90272498 Z" id="Path-883" fill="url(#linearGradient-50)"></path>
                <path d="M4.7572987,0.01926451 L2.40557935,2.12347346 L0.0538599738,5.90246206 L1.34138518,5.90246216 L4.7572987,0.01926451 Z" id="Path-884" fill="#F48B59"></path>
            </g>
            <g id="tiny-mtn-copy-5" transform="translate(480.000000, 394.000000)">
                <path d="M1.21636274,4.91893749 L4.32475452,0.0171978386 L7.55600192,4.33832621 L1.21636274,4.91893749 Z" id="Path-883" fill="url(#linearGradient-50)"></path>
                <path d="M4.324817,0.0160537583 L1.8229819,2.62675294 L0.0489636125,4.91871839 L1.21944107,4.91871847 L4.324817,0.0160537583 Z" id="Path-884" fill="#F48B59"></path>
            </g>
        </g>
    </g>
</svg>