<?xml version="1.0" encoding="UTF-8" standalone="no"?>
<svg width="490px" height="574px" viewBox="0 0 490 574" version="1.1" xmlns="http://www.w3.org/2000/svg" xmlns:xlink="http://www.w3.org/1999/xlink">
    <!-- Generator: Sketch 3.6.1 (26313) - http://www.bohemiancoding.com/sketch -->
    <title>mountain-scene</title>
    <desc>Created with Sketch.</desc>
    <defs>
        <linearGradient x1="50%" y1="4.07963967%" x2="50%" y2="100%" id="linearGradient-1">
            <stop stop-color="#D96665" offset="0%"></stop>
            <stop stop-color="#F59965" offset="100%"></stop>
            <stop stop-color="#B43B3A" offset="100%"></stop>
        </linearGradient>
        <linearGradient x1="50%" y1="4.07963967%" x2="50%" y2="100%" id="linearGradient-2">
            <stop stop-color="#FFCBCA" offset="0%"></stop>
            <stop stop-color="#F59965" offset="100%"></stop>
            <stop stop-color="#B43B3A" offset="100%"></stop>
        </linearGradient>
        <path id="path-3" d="M127.481094,77.065457 L155.923464,50.096142 L168.459392,68.4269831 L162.959442,66.641051 L158.970619,72.9852092 L151.311187,65.4112637 L127.481094,77.065457 Z"></path>
        <path id="path-4" d="M250.921319,72.1426668 L218.161022,97.2728392 L280.963501,28.0595214 L315.707844,64.9393317 L294.887821,49.641051 L290.483371,56.5136496 L276.963501,45.257836 L262.713318,50.6320009 L250.921319,72.1426668 Z"></path>
        <path id="path-5" d="M366.131696,132.639943 L386.963501,110.042184 L402.642953,133.013459 L393.491794,125.257836 L388.916213,129.65181 L380.698847,123.862301 L366.131696,132.639943 Z"></path>
        <path id="path-6" d="M82.2544056,102.54395 L103.348991,79.8130481 L118.727827,103.316989 L109.697288,95.252455 L105.121708,99.6464293 L96.9043414,93.8569195 L82.2544056,102.54395 Z"></path>
        <linearGradient x1="50%" y1="0%" x2="50%" y2="100%" id="linearGradient-7">
            <stop stop-color="#CB5251" offset="0%"></stop>
            <stop stop-color="#FF8A48" offset="100%"></stop>
        </linearGradient>
        <path id="path-8" d="M192.921319,44.1426668 L160.161022,69.2728392 L222.963501,0.0595213771 L304.405666,77.752278 L264.275982,53.9053316 L259.441319,64.9560022 L221.907986,35.4013338 L204.713318,52.6320009 L192.921319,44.1426668 Z"></path>
        <linearGradient x1="50%" y1="0%" x2="50%" y2="100%" id="linearGradient-9">
            <stop stop-color="#A52423" offset="0%"></stop>
            <stop stop-color="#B14C12" offset="100%"></stop>
        </linearGradient>
    </defs>
    <g id="Page-1" stroke="none" stroke-width="1" fill="none" fill-rule="evenodd">
        <g id="mountain-scene">
            <g id="mtn" transform="translate(-472.000000, -485.000000)">
                <path d="M715.499994,1061.99609 C956.957025,1061.99609 956.957031,794.996094 956.957031,794.996094 C956.957031,794.996094 816.291967,754 715.5,754 C614.708033,754 478.957031,798.996094 478.957031,798.996094 C478.957031,798.996094 474.042963,1061.99609 715.499994,1061.99609 Z" id="Oval-49"></path>
                <g id="sun" transform="translate(630.000000, 497.000000)">
                    <circle id="sun-copy-2" fill="url(#linearGradient-1)" opacity="0.141732743" cx="87.5" cy="87.5" r="87.5"></circle>
                    <circle id="sun-copy" fill="#BE4A3A" opacity="0.290986474" cx="88" cy="86" r="71"></circle>
                    <circle fill="#BF4A39" cx="88" cy="86" r="54"></circle>
                </g>
                <g transform="translate(479.000000, 552.000000)">
                    <path d="M76,261 L280.996094,27.9960938 L457.996094,215.996094 L76,261 Z" id="Path-188-Copy-2" fill="#E46D56"></path>
                    <path d="M0.58203125,247.498047 L140,50 L378,281 L0.58203125,247.498047 Z" id="Path-188-Copy" fill="#E06851"></path>
                    <path d="M220.996094,477.996094 L0.0905539989,246.726913 L97,80 L335,311 L220.996094,477.996094 Z" id="Path-188-Copy-3" fill="#E7745E"></path>
                    <g id="Path-214-Copy-2">
                        <use fill="none" transform="translate(147.970243, 63.580800) scale(-1, 1) translate(-147.970243, -63.580800) " xlink:href="#path-3"></use>
                        <use fill="url(#linearGradient-2)" fill-rule="evenodd" xlink:href="#path-3"></use>
                    </g>
                    <path d="M176,341 L387,110 L477.908722,242.999649 L266.996094,433.996094 L176,341 Z" id="Path-188-Copy-4" fill="#E26A53"></path>
                    <g id="Path-214-Copy">
                        <use fill="none" xlink:href="#path-4"></use>
                        <use fill="url(#linearGradient-2)" fill-rule="evenodd" xlink:href="#path-4"></use>
                    </g>
                    <g id="Path-214-Copy-3">
                        <use fill="none" xlink:href="#path-5"></use>
                        <use fill="url(#linearGradient-2)" fill-rule="evenodd" xlink:href="#path-5"></use>
                    </g>
                    <g id="Path-214-Copy-4">
                        <use fill="none" transform="translate(100.491116, 91.565018) scale(-1, 1) rotate(3.000000) translate(-100.491116, -91.565018) " xlink:href="#path-6"></use>
                        <use fill="url(#linearGradient-2)" fill-rule="evenodd" xlink:href="#path-6"></use>
                    </g>
                    <path d="M440.758459,409.326447 L223.000006,501.065399 L38.9960955,406.996094 L4.99609363,308.996094 L0.181463122,246.545105 L223,0 L477.908722,243.181458 L440.758459,409.326447 Z" id="Path-188" fill="url(#linearGradient-7)"></path>
                    <g id="Path-214">
                        <use fill="none" xlink:href="#path-8"></use>
                        <use fill="url(#linearGradient-2)" fill-rule="evenodd" xlink:href="#path-8"></use>
                    </g>
                    <path d="M441.154461,408.534454 L223,500.996094 L236,173 L217.996094,152 L258.996094,103 L221.913019,36.3563309 L223,0 L477.908722,243.181458 L441.154461,408.534454 Z" id="Path-188-Copy-5" fill="url(#linearGradient-9)" opacity="0.679046175"></path>
                </g>
                <path d="M483.478516,861.998047 L956.957031,794.996094 C956.957031,794.996094 816.291967,754 715.5,754 C614.708033,754 479.011091,799.256824 479.011091,799.256824 L483.478516,861.998047 Z" id="Oval-49-Copy" fill="#415E80"></path>
                <path d="M496.837824,914.20872 C680.005918,769.120986 962.229294,844.257281 962.229294,844.257281 C962.229294,844.257281 681.140317,720.289763 486.285428,809.735666 L496.837824,914.20872 Z" id="Oval-49-Copy-2" fill="#52739A" transform="translate(724.257361, 845.758614) rotate(-12.000000) translate(-724.257361, -845.758614) "></path>
                <path d="M654.924821,1022.32985 C770.021587,816.436136 989.507778,883.824171 989.507778,883.824171 C989.507778,883.824171 716.231161,747.352561 519.146445,863.589616 L654.924821,1022.32985 Z" id="Oval-49-Copy-3" fill="#5E82AC" transform="translate(754.327111, 919.514434) rotate(-23.000000) translate(-754.327111, -919.514434) "></path>
            </g>
            <g id="trees" transform="translate(44.000000, 168.000000)">
                <g id="trees_white" transform="translate(0.000000, 54.000000)">
                    <g id="tree" transform="translate(69.000000, 13.000000)">
                        <path d="M25.7673024,24.4148936 C23.9061473,21.3213831 19.4153927,22.3221884 19.4153927,22.3221884 L14.8320083,23.174772 C14.8320083,23.174772 7.34117648,33.870821 0.0731847533,41.3890578 C0.0731847533,41.3890578 12.0790671,49.2173252 18.5603461,51 C26.6849494,48.8297872 38.9202436,43.4817633 38.9202436,43.4817633 C35.0796557,39.1877874 28.8028543,29.4604224 25.7673024,24.4148936 Z" id="tree_middle" fill="#B5ACAC"></path>
                        <path d="M23.2697428,15.2028244 C21.4085877,12.1093139 19.4153927,9.92097264 19.4153927,9.92097264 C19.4153927,9.92097264 17.2520363,12.0198331 15.6443572,14.7761326 C12.6919401,19.83793 7.85229776,27.0758712 5.10591613,30.2479084 C5.10591613,30.2479084 13.6644077,35.103069 18.5603461,38.5987842 C22.733854,36.5272493 34.1025965,31.9957666 34.1025965,31.9957666 C30.2620087,27.7017908 26.3052947,20.2483533 23.2697428,15.2028244 Z" id="tree_middle-copy-2" fill="#C8C2C2"></path>
                        <path d="M18.8930027,-1.59872116e-14 C18.8930027,-1.59872116e-14 17.7378906,7.44072948 9.63529412,19.9672509 C9.63529412,19.9672509 14.7555377,22.7097264 18.8930027,25.1863152 C22.5555377,23.949848 29.2212995,21.5549426 29.2212995,21.5549426 C21.2555377,6.97568389 18.8930027,-1.59872116e-14 18.8930027,-1.59872116e-14 Z" id="tree_middle-copy" fill="#D7D7D7"></path>
                    </g>
                    <g id="tree-copy-2" transform="translate(0.000000, 30.000000)">
                        <path d="M27.0887025,25.3723404 C25.1321035,22.1575157 20.4110539,23.1975684 20.4110539,23.1975684 L15.5926241,24.0835866 C15.5926241,24.0835866 7.71764707,35.1990885 0.0769378176,43.0121581 C0.0769378176,43.0121581 12.6985064,51.1474164 19.5121587,53 C28.0534084,50.7446809 40.9161535,45.1869305 40.9161535,45.1869305 C36.8786124,40.7245634 30.2799237,30.6157331 27.0887025,25.3723404 Z" id="tree_middle" fill="#B5ACAC"></path>
                        <path d="M24.463063,15.7990136 C22.506464,12.5841889 20.4110539,10.3100304 20.4110539,10.3100304 C20.4110539,10.3100304 18.1367561,12.4911991 16.446632,15.3555888 C13.3428088,20.615888 8.25497969,28.1376701 5.36775799,31.4341009 C5.36775799,31.4341009 14.3651466,36.47966 19.5121587,40.112462 C23.8996926,37.9596904 35.8514476,33.2505026 35.8514476,33.2505026 C31.8139065,28.7881355 27.6542842,21.0424063 24.463063,15.7990136 Z" id="tree_middle-copy-2" fill="#C8C2C2"></path>
                        <path d="M19.8618746,-1.59872116e-14 C19.8618746,-1.59872116e-14 18.647526,7.7325228 10.1294118,20.7502803 C10.1294118,20.7502803 15.5122319,23.600304 19.8618746,26.1740138 C23.7122319,24.8890578 30.7198277,22.4002344 30.7198277,22.4002344 C22.3455653,7.24924012 19.8618746,-1.59872116e-14 19.8618746,-1.59872116e-14 Z" id="tree_middle-copy" fill="#D7D7D7"></path>
                    </g>
                    <g id="tree-copy" transform="translate(26.000000, 0.000000)">
                        <path d="M41.6241039,39.2553191 C38.6176225,34.2814394 31.3633266,35.8905775 31.3633266,35.8905775 L23.959398,37.2613982 C23.959398,37.2613982 11.8588235,54.4589672 0.118221525,66.5471125 C0.118221525,66.5471125 19.5123392,79.1337386 29.9820976,82 C43.1064568,78.5106383 62.8711627,69.9118547 62.8711627,69.9118547 C56.6671362,63.0078151 46.5276877,47.3677381 41.6241039,39.2553191 Z" id="tree_middle" fill="#B5ACAC"></path>
                        <path d="M37.5895846,24.4437569 C34.5831032,19.4698772 31.3633266,15.9513678 31.3633266,15.9513678 C31.3633266,15.9513678 27.8686741,19.3260062 25.271654,23.7577034 C20.5023648,31.8962796 12.684481,43.5337537 8.24801837,48.6338919 C8.24801837,48.6338919 22.073274,56.4402286 29.9820976,62.0607903 C36.723918,58.7300871 55.0888097,51.4441738 55.0888097,51.4441738 C48.8847832,44.5401342 42.4931684,32.5561758 37.5895846,24.4437569 Z" id="tree_middle-copy-2" fill="#C8C2C2"></path>
                        <path d="M30.5194659,-2.48689958e-14 C30.5194659,-2.48689958e-14 28.6535156,11.9635258 15.5647059,32.1042073 C15.5647059,32.1042073 23.8358686,36.5136778 30.5194659,40.495644 C36.4358686,38.5075988 47.2036377,34.6569665 47.2036377,34.6569665 C34.3358686,11.2158055 30.5194659,-2.48689958e-14 30.5194659,-2.48689958e-14 Z" id="tree_middle-copy" fill="#D7D7D7"></path>
                    </g>
                </g>
                <g id="trees_white-copy" transform="translate(348.500000, 100.000000) scale(-1, 1) translate(-348.500000, -100.000000) translate(303.000000, 65.000000)">
                    <g id="tree" transform="translate(75.000000, 35.500000) rotate(-5.000000) translate(-75.000000, -35.500000) translate(61.000000, 17.000000)">
                        <path d="M18.4996017,17.712766 C17.1633878,15.4684544 13.9392563,16.1945289 13.9392563,16.1945289 L10.6486213,16.8130699 C10.6486213,16.8130699 5.27058824,24.5729486 0.0525428998,30.0273556 C0.0525428998,30.0273556 8.67215074,35.7066869 13.3253767,37 C19.1584252,35.4255319 27.942739,31.545593 27.942739,31.545593 C25.1853939,28.4303556 20.6789723,21.3732477 18.4996017,17.712766 Z" id="tree_middle" fill="#B5ACAC"></path>
                        <path d="M16.706482,11.0295001 C15.3702681,8.7851885 13.9392563,7.19756839 13.9392563,7.19756839 C13.9392563,7.19756839 12.3860774,8.72027109 11.2318462,10.7199393 C9.11216214,14.3922237 5.63754711,19.6432791 3.66578594,21.944561 C3.66578594,21.944561 9.81034399,25.4669324 13.3253767,28.0030395 C16.3217413,26.5001612 24.4839154,23.212615 24.4839154,23.212615 C21.7265703,20.0973776 18.8858526,14.6899818 16.706482,11.0295001 Z" id="tree_middle-copy-2" fill="#C8C2C2"></path>
                        <path d="M13.5642071,-1.47437618e-13 C13.5642071,-1.47437618e-13 12.7348958,5.39817629 6.91764706,14.4860448 C6.91764706,14.4860448 10.5937194,16.4756839 13.5642071,18.2724247 C16.1937194,17.3753799 20.9793945,15.6378995 20.9793945,15.6378995 C15.260386,5.06079027 13.5642071,-1.47437618e-13 13.5642071,-1.47437618e-13 Z" id="tree_middle-copy" fill="#D7D7D7"></path>
                    </g>
                    <g id="tree-copy-2" transform="translate(18.500000, 47.000000) rotate(-9.000000) translate(-18.500000, -47.000000) translate(3.000000, 27.000000)">
                        <path d="M20.4817019,19.1489362 C19.0023222,16.7226534 15.432748,17.5075988 15.432748,17.5075988 L11.789545,18.1762918 C11.789545,18.1762918 5.83529413,26.5653498 0.0581724962,32.4620061 C0.0581724962,32.4620061 9.60130974,38.6018237 14.7530956,40 C21.2111137,38.2978723 30.9366039,34.1033438 30.9366039,34.1033438 C27.8838289,30.7355195 22.8945765,23.1062137 20.4817019,19.1489362 Z" id="tree_middle" fill="#B5ACAC"></path>
                        <path d="M18.4964622,11.9237839 C17.0170825,9.49750108 15.432748,7.78115502 15.432748,7.78115502 C15.432748,7.78115502 13.7131571,9.4273201 12.4352583,11.5891236 C10.0884652,15.5591608 6.24157001,21.2359774 4.05854872,23.7238497 C4.05854872,23.7238497 10.8614523,27.5318188 14.7530956,30.2735562 C18.0704993,28.648823 27.1071921,25.0947189 27.1071921,25.0947189 C24.0544171,21.7268947 20.9093368,15.8810614 18.4964622,11.9237839 Z" id="tree_middle-copy-2" fill="#C8C2C2"></path>
                        <path d="M15.017515,-1.52766688e-13 C15.017515,-1.52766688e-13 14.099349,5.83586626 7.65882353,15.6605889 C7.65882353,15.6605889 11.7287607,17.8115502 15.017515,19.7539727 C17.9287607,18.7841945 23.2271868,16.9058373 23.2271868,16.9058373 C16.8954274,5.47112462 15.017515,-1.52766688e-13 15.017515,-1.52766688e-13 Z" id="tree_middle-copy" fill="#D7D7D7"></path>
                    </g>
                    <g id="tree-copy" transform="translate(44.500000, 33.500000) rotate(-7.000000) translate(-44.500000, -33.500000) translate(21.000000, 3.000000)">
                        <path d="M31.0529029,29.2021277 C28.8099724,25.5020464 23.3980373,26.6990881 23.3980373,26.6990881 L17.8744715,27.718845 C17.8744715,27.718845 8.84705884,40.5121585 0.0881970104,49.5045593 C0.0881970104,49.5045593 14.5568244,58.8677812 22.3675966,61 C32.1587852,58.4042553 46.9038833,52.0075992 46.9038833,52.0075992 C42.2754825,46.8716673 34.7111321,35.2369759 31.0529029,29.2021277 Z" id="tree_middle" fill="#B5ACAC"></path>
                        <path d="M28.0430234,18.1837704 C25.8000929,14.4836891 23.3980373,11.8662614 23.3980373,11.8662614 C23.3980373,11.8662614 20.7909156,14.3766632 18.8534562,17.6734135 C15.295415,23.7277202 9.4630255,32.3848655 6.15328355,36.1788708 C6.15328355,36.1788708 16.4673631,41.9860237 22.3675966,46.1671733 C27.3972086,43.689455 41.0980009,38.2694464 41.0980009,38.2694464 C36.4696002,33.1335144 31.7012526,24.2186186 28.0430234,18.1837704 Z" id="tree_middle-copy-2" fill="#C8C2C2"></path>
                        <path d="M22.7684904,-2.84217094e-14 C22.7684904,-2.84217094e-14 21.3764323,8.89969605 11.6117647,23.8823981 C11.6117647,23.8823981 17.7823146,27.162614 22.7684904,30.1248083 C27.1823146,28.6458967 35.2154122,25.7814019 35.2154122,25.7814019 C25.615648,8.34346505 22.7684904,-2.84217094e-14 22.7684904,-2.84217094e-14 Z" id="tree_middle-copy" fill="#D7D7D7"></path>
                    </g>
                </g>
                <g id="trees_white-copy-2" transform="translate(308.500000, 235.000000) scale(-1, 1) translate(-308.500000, -235.000000) translate(260.000000, 169.000000)">
                    <g id="tree" transform="translate(50.000000, 40.000000)">
                        <path d="M31.0529029,29.2021277 C28.8099724,25.5020464 23.3980373,26.6990881 23.3980373,26.6990881 L17.8744715,27.718845 C17.8744715,27.718845 8.84705884,40.5121585 0.0881970104,49.5045593 C0.0881970104,49.5045593 14.5568244,58.8677812 22.3675966,61 C32.1587852,58.4042553 46.9038833,52.0075992 46.9038833,52.0075992 C42.2754825,46.8716673 34.7111321,35.2369759 31.0529029,29.2021277 Z" id="tree_middle" fill="#B5ACAC"></path>
                        <path d="M28.0430234,18.1837704 C25.8000929,14.4836891 23.3980373,11.8662614 23.3980373,11.8662614 C23.3980373,11.8662614 20.7909156,14.3766632 18.8534562,17.6734135 C15.295415,23.7277202 9.4630255,32.3848655 6.15328355,36.1788708 C6.15328355,36.1788708 16.4673631,41.9860237 22.3675966,46.1671733 C27.3972086,43.689455 41.0980009,38.2694464 41.0980009,38.2694464 C36.4696002,33.1335144 31.7012526,24.2186186 28.0430234,18.1837704 Z" id="tree_middle-copy-2" fill="#C8C2C2"></path>
                        <path d="M22.7684904,1.95399252e-14 C22.7684904,1.95399252e-14 21.3764323,8.89969605 11.6117647,23.8823981 C11.6117647,23.8823981 17.7823146,27.162614 22.7684904,30.1248083 C27.1823146,28.6458967 35.2154122,25.7814019 35.2154122,25.7814019 C25.615648,8.34346505 22.7684904,1.95399252e-14 22.7684904,1.95399252e-14 Z" id="tree_middle-copy" fill="#D7D7D7"></path>
                    </g>
                    <g id="tree-copy-2">
                        <path d="M31.0529029,29.2021277 C28.8099724,25.5020464 23.3980373,26.6990881 23.3980373,26.6990881 L17.8744715,27.718845 C17.8744715,27.718845 8.84705884,40.5121585 0.0881970104,49.5045593 C0.0881970104,49.5045593 14.5568244,58.8677812 22.3675966,61 C32.1587852,58.4042553 46.9038833,52.0075992 46.9038833,52.0075992 C42.2754825,46.8716673 34.7111321,35.2369759 31.0529029,29.2021277 Z" id="tree_middle" fill="#B5ACAC"></path>
                        <path d="M28.0430234,18.1837704 C25.8000929,14.4836891 23.3980373,11.8662614 23.3980373,11.8662614 C23.3980373,11.8662614 20.7909156,14.3766632 18.8534562,17.6734135 C15.295415,23.7277202 9.4630255,32.3848655 6.15328355,36.1788708 C6.15328355,36.1788708 16.4673631,41.9860237 22.3675966,46.1671733 C27.3972086,43.689455 41.0980009,38.2694464 41.0980009,38.2694464 C36.4696002,33.1335144 31.7012526,24.2186186 28.0430234,18.1837704 Z" id="tree_middle-copy-2" fill="#C8C2C2"></path>
                        <path d="M22.7684904,1.95399252e-14 C22.7684904,1.95399252e-14 21.3764323,8.89969605 11.6117647,23.8823981 C11.6117647,23.8823981 17.7823146,27.162614 22.7684904,30.1248083 C27.1823146,28.6458967 35.2154122,25.7814019 35.2154122,25.7814019 C25.615648,8.34346505 22.7684904,1.95399252e-14 22.7684904,1.95399252e-14 Z" id="tree_middle-copy" fill="#D7D7D7"></path>
                    </g>
                    <g id="tree-copy" transform="translate(8.000000, 40.000000)">
                        <path d="M46.9097044,44.0425532 C43.5214476,38.4621028 35.3459713,40.2674772 35.3459713,40.2674772 L27.0018612,41.8054711 C27.0018612,41.8054711 13.3647059,61.1003046 0.133233782,74.662614 C0.133233782,74.662614 21.9900965,88.7841945 33.789348,92 C48.5802926,88.0851064 70.8548024,78.4376906 70.8548024,78.4376906 C63.862963,70.691695 52.4359655,53.1442915 46.9097044,44.0425532 Z" id="tree_middle" fill="#B5ACAC"></path>
                        <path d="M42.3628651,27.4247029 C38.9746084,21.8442525 35.3459713,17.8966565 35.3459713,17.8966565 C35.3459713,17.8966565 31.4075533,21.6828362 28.4807529,26.6549843 C23.1058397,35.7860698 14.2952087,48.842748 9.29538578,54.5648543 C9.29538578,54.5648543 24.8762294,63.3231833 33.789348,69.6291793 C41.3872726,65.8922928 62.0842142,57.7178535 62.0842142,57.7178535 C55.0923747,49.9718578 47.8891263,36.5264412 42.3628651,27.4247029 Z" id="tree_middle-copy-2" fill="#C8C2C2"></path>
                        <path d="M34.3949536,-2.84217094e-14 C34.3949536,-2.84217094e-14 32.2920573,13.4224924 17.5411765,36.0193545 C17.5411765,36.0193545 26.8626455,40.9665653 34.3949536,45.4341372 C41.0626455,43.2036474 53.1977504,38.8834258 53.1977504,38.8834258 C38.6959789,12.5835866 34.3949536,-2.84217094e-14 34.3949536,-2.84217094e-14 Z" id="tree_middle-copy" fill="#D7D7D7"></path>
                    </g>
                </g>
            </g>
        </g>
    </g>
</svg>