<?xml version="1.0" encoding="UTF-8"?>
<svg width="40px" height="39px" viewBox="0 0 40 39" version="1.1" xmlns="http://www.w3.org/2000/svg" xmlns:xlink="http://www.w3.org/1999/xlink">
    <!-- Generator: Sketch 54.1 (76490) - https://sketchapp.com -->
    <title>nut-logo-light@1.5x</title>
    <desc>Created with Sketch.</desc>
    <g id="nut-logo-light" stroke="none" stroke-width="1" fill="none" fill-rule="evenodd">
        <g id="nut">
            <g transform="translate(3.145450, 14.769853)" id="Combined-Shape" stroke="#FFFFFF">
                <path d="M14.2277247,23.1910173 C13.7685147,23.1576694 12.455077,22.400623 11.2161379,21.7735905 C7.532115,19.9090906 3.82238084,18.0253609 3.12165792,17.251629 C1.69551709,15.6768971 -0.110425652,11.4100195 0.00529063245,6.01586036 C0.082399286,2.42141082 4.96668852,0.420323655 14.6581583,0.0125988647 C24.2803043,0.417143736 29.1298094,2.41975429 29.2069536,6.01586036 C29.3226699,11.4100195 27.5167271,15.6768971 26.0905863,17.251629 C25.3898634,18.0253609 21.4017568,19.9467972 17.7177339,21.8112971 C16.403171,22.4766031 15.3916786,22.8729081 14.3048058,23.1995521 C14.2779552,23.2076217 14.2522615,23.2047767 14.2277247,23.1910173 Z"></path>
            </g>
            <g id="husk" fill="#FFFFFF">
                <path d="M32.2559497,23.4330832 C32.3361608,22.5883868 32.3720889,21.7033619 32.3524034,20.785713 C32.2752914,17.1911084 27.4255412,15.1946705 17.8031528,14.7963992 L17.8032319,14.779102 C8.11204845,15.1874033 3.22788461,17.1896069 3.15074042,20.785713 C3.13128693,21.6925451 3.16614379,22.5675178 3.24437614,23.4031959 C3.21140969,23.4017273 3.17843424,23.4002542 3.14544979,23.3987767 C2.40538438,23.3246882 1.90750337,22.5631159 1.65180676,21.1140599 C1.26826184,18.9404759 -0.236474492,12.2133275 1.29868176,11.0050755 C2.83383801,9.7968236 6.69731457,6.51542711 15.7941896,5.1027318 C23.1506349,5.95253649 26.5420969,6.44430546 32.9100099,9.5339818 C34.3193849,12.3800755 34.1024147,20.3389163 34.1070802,21.1136693 C34.1117456,21.8884223 46.7201661,22.6249974 33.2001413,23.3822181 C32.8866266,23.3997772 32.571896,23.4167323 32.2559497,23.4330832 Z" id="Combined-Shape"></path>
            </g>
        </g>
    </g>
</svg>