<?xml version="1.0" encoding="UTF-8" standalone="no"?>
<svg width="351px" height="362px" viewBox="0 0 351 362" version="1.1" xmlns="http://www.w3.org/2000/svg" xmlns:xlink="http://www.w3.org/1999/xlink">
    <!-- Generator: Sketch 3.6.1 (26313) - http://www.bohemiancoding.com/sketch -->
    <title>sign</title>
    <desc>Created with Sketch.</desc>
    <defs>
        <linearGradient x1="50%" y1="4.07963967%" x2="50%" y2="100%" id="linearGradient-1">
            <stop stop-color="#946B9E" offset="0%"></stop>
            <stop stop-color="#76889B" offset="100%"></stop>
            <stop stop-color="#B43B3A" offset="100%"></stop>
        </linearGradient>
        <path id="path-2" d="M0.129710102,176.584911 L166.124033,0.559405941 L338.063785,176.584913 L0.129710102,176.584911 Z"></path>
        <linearGradient x1="50%" y1="0%" x2="59.1189272%" y2="133.792818%" id="linearGradient-3">
            <stop stop-color="#000000" stop-opacity="0" offset="0%"></stop>
            <stop stop-color="#000000" stop-opacity="0.250396286" offset="100%"></stop>
        </linearGradient>
        <path id="path-4" d="M166.065729,0.951370645 L175.742942,26.9383721 L179.411828,24.5478215 L191.840574,57.8631176 L196.055498,54.4563717 L210.541769,91.7293858 L214.518332,88.975655 L222.259218,110.24762 L226.282656,107.149964 L240.800883,147.488495 L244.888903,145.297913 L256.666773,176.999939 L338.023577,176.999933 L166.065729,0.951370645 Z"></path>
        <linearGradient x1="110.497337%" y1="152.180013%" x2="-9.09364294%" y2="0%" id="linearGradient-5">
            <stop stop-color="#CB5251" offset="0%"></stop>
            <stop stop-color="#FF8A48" offset="100%"></stop>
        </linearGradient>
        <path id="path-6" d="M0.129710102,176.417919 L166.124033,0.392413761 L338.063785,176.417921 L0.129710102,176.417919 Z"></path>
        <linearGradient x1="24.6673517%" y1="73.156908%" x2="100%" y2="2.53652592%" id="linearGradient-7">
            <stop stop-color="#7F2120" offset="0%"></stop>
            <stop stop-color="#FF8A48" offset="100%"></stop>
        </linearGradient>
        <path id="path-8" d="M166.124323,0.404098105 L175.801536,26.3910995 L179.470422,24.0005489 L191.899168,57.3158451 L196.114092,53.9090992 L210.600363,91.1821132 L214.576925,88.4283825 L222.317812,109.700347 L226.34125,106.602691 L240.859476,146.941223 L244.947497,144.75064 L256.725367,176.452667 L338.08217,176.452661 L166.124323,0.404098105 Z"></path>
    </defs>
    <g id="Page-1" stroke="none" stroke-width="1" fill="none" fill-rule="evenodd">
        <g id="sign">
            <g id="mtn" transform="translate(6.747292, 4.524916)">
                <g id="mtn-bottom" transform="translate(169.500000, 263.500000) scale(1, -1) translate(-169.500000, -263.500000) translate(0.000000, 175.000000)">
                    <g id="lake">
                        <use fill="url(#linearGradient-1)" fill-rule="evenodd" xlink:href="#path-2"></use>
                        <use fill="none" xlink:href="#path-2"></use>
                    </g>
                    <g id="ridge-reflection" opacity="0.182369403">
                        <use fill="url(#linearGradient-3)" fill-rule="evenodd" transform="translate(252.044653, 88.975655) scale(-1, -1) rotate(-180.000000) translate(-252.044653, -88.975655) " xlink:href="#path-4"></use>
                        <use fill="none" xlink:href="#path-4"></use>
                    </g>
                </g>
                <g id="mtn-top">
                    <g id="mountain">
                        <use fill="url(#linearGradient-5)" fill-rule="evenodd" xlink:href="#path-6"></use>
                        <use fill="none" xlink:href="#path-6"></use>
                    </g>
                    <g id="top-ridge">
                        <use fill="url(#linearGradient-7)" xlink:href="#path-8"></use>
                        <use fill-opacity="0.04" fill="none" xlink:href="#path-8"></use>
                    </g>
                </g>
            </g>
        </g>
    </g>
</svg>